<svg width="120" height="32" viewBox="0 0 120 32" fill="none" xmlns="http://www.w3.org/2000/svg">
<g clip-path="url(#clip0_174_36)">
<path d="M31.4543 16.056C31.2459 15.6477 30.704 15.321 30.2871 15.321H29.3699C28.9113 15.321 28.4111 15.6477 28.2026 16.056L20.9072 30.9179C20.6987 31.3261 20.9072 31.5711 21.3657 31.5711H23.0333C23.7003 31.5711 23.9921 31.2853 24.1589 30.9179C24.3256 30.5504 24.7425 29.7746 24.8259 29.6113C24.9093 29.4072 25.2428 29.2439 25.7013 29.2439H33.4971C33.9557 29.2439 34.2475 29.3255 34.3725 29.5705C34.4559 29.7338 34.8728 30.4279 35.0396 30.8362C35.248 31.2037 35.5815 31.5303 36.2068 31.5303H38.6248C39.0833 31.5303 39.2501 31.2037 39.125 30.877C39 30.6321 31.4543 16.056 31.4543 16.056ZM26.8686 26.9574C26.41 26.9574 26.2016 26.6308 26.41 26.2225L29.2865 20.2206C29.495 19.8123 29.7868 19.8123 29.9536 20.2206L32.7467 26.2225C32.9134 26.6308 32.705 26.9574 32.2881 26.9574H26.8686ZM87.442 16.1785C87.442 16.3418 87.442 30.5912 87.442 30.877C87.442 31.2853 87.8172 31.5711 88.2757 31.5711H90.2768C90.7354 31.5711 91.1106 31.2853 91.1106 30.8362V16.1376C91.1106 15.6885 90.8187 15.321 90.3602 15.321H88.3174C87.8172 15.3619 87.442 15.6069 87.442 16.1785ZM54.2579 25.4059C54.0078 25.0384 54.1329 24.6301 54.5914 24.5076C54.5914 24.5076 56.3007 24.0177 57.1344 23.2828C57.9682 22.5478 58.3851 21.5271 58.3851 20.1797C58.3851 19.2815 58.2183 18.5466 57.9265 17.9341C57.593 17.3217 57.1761 16.8317 56.5508 16.4643C55.9672 16.0968 55.2585 15.811 54.4247 15.6477C53.5909 15.4844 52.507 15.4027 52.507 15.4027C52.0485 15.4027 51.3397 15.3619 50.8812 15.3619H42.6685C42.21 15.3619 41.8348 15.7293 41.8348 16.1785V30.877C41.8348 31.3261 42.21 31.612 42.6685 31.612H44.6279C45.0865 31.612 45.4617 31.3261 45.4617 30.877V25.0384H49.1719C49.6305 25.0384 50.2142 25.3242 50.4643 25.6917L54.2996 30.9587C54.6748 31.4078 55.0083 31.612 55.4252 31.612H57.9682C58.4268 31.612 58.4685 31.2037 58.3434 30.9995C58.0933 30.7137 54.2579 25.4059 54.2579 25.4059ZM52.7155 22.4254C52.2152 22.5478 51.6316 22.5478 51.6316 22.5478C51.173 22.5478 50.4643 22.5887 50.0057 22.5887H46.2121C45.7535 22.5887 45.3783 22.2212 45.3783 21.7721V18.7915C45.3783 18.3424 45.7535 17.975 46.2121 17.975H50.0057C50.4643 17.975 51.173 17.975 51.6316 18.0158C51.6316 18.0158 52.2152 18.0566 52.7155 18.1383C53.2157 18.2608 53.6326 18.4241 53.9244 18.6282C54.2163 18.8324 54.4247 19.0773 54.5498 19.3632C54.6748 19.649 54.7582 19.9348 54.7582 20.2614C54.7582 20.588 54.6748 20.9147 54.5498 21.1596C54.4247 21.4454 54.2163 21.6904 53.9244 21.8946C53.5909 22.1395 53.2157 22.3029 52.7155 22.4254ZM111.746 15.3619C111.288 15.3619 110.954 15.6477 110.954 16.056C110.954 16.2601 110.954 25.4467 110.954 25.4467C110.954 25.8958 110.704 25.9775 110.371 25.6509L100.741 15.8927C100.449 15.566 99.9902 15.321 99.3649 15.321H97.5723C96.9886 15.321 96.7385 15.6069 96.7385 15.9335C96.7385 16.2193 96.7385 30.6729 96.7385 30.9587C96.7385 31.2445 97.0303 31.5303 97.4889 31.5303H99.2815C99.7401 31.5303 100.032 31.2853 100.032 30.877C100.032 30.6729 100.032 20.9555 100.032 20.9555C100.032 20.5064 100.282 20.4247 100.616 20.7513L110.662 30.9587C110.996 31.2853 111.371 31.5303 112.038 31.5303H113.414C113.872 31.5303 114.248 31.1628 114.248 30.7137V16.1376C114.248 15.6885 113.872 15.321 113.414 15.321H111.746V15.3619ZM72.5592 24.5076C72.3507 24.8751 71.9755 24.8751 71.7671 24.5076L67.0563 16.056C66.8479 15.6477 66.431 15.321 65.889 15.321H63.346C62.8875 15.321 62.5123 15.6885 62.5123 16.1376V30.8362C62.5123 31.2853 62.8041 31.5711 63.346 31.5711H64.9302C65.3888 31.5711 65.7223 31.2853 65.7223 30.877C65.7223 30.6729 65.7223 20.1797 65.764 20.1797L71.642 30.877C71.8505 31.2445 72.3924 31.2853 72.6009 30.877C72.6009 30.877 78.4789 20.2206 78.5206 20.2206C78.5206 20.2206 78.5206 30.5504 78.5206 30.877C78.5206 31.2853 78.8541 31.5711 79.3127 31.5711H81.147C81.6056 31.5711 81.9808 31.367 81.9808 30.7545V16.1376C81.9808 15.6885 81.6056 15.321 81.147 15.321H78.6874C78.0621 15.321 77.6869 15.6477 77.4784 16.0151L72.5592 24.5076Z" fill="white"/>
<path d="M0 23.5275C0 31.4002 8.27721 31.806 9.94938 31.806C15.4675 31.806 17.7667 30.3451 17.8922 30.3045C18.2266 30.1016 18.6446 29.7364 18.6446 29.0059V23.568C18.6446 23.0811 18.2266 22.6753 17.7249 22.6753H10.7855C10.2838 22.6753 9.94938 23.0811 9.94938 23.568V24.1362C9.94938 24.6232 10.2838 25.029 10.7855 25.029H14.7987C15.1749 25.029 15.5093 25.3536 15.5093 25.7188C15.5093 25.7188 15.5093 28.1131 15.5093 28.2349C14.715 28.5595 11.1199 29.574 8.23541 28.8842C4.01319 27.9508 3.67876 24.5826 3.67876 23.568C3.67876 22.7158 3.92959 18.4954 9.11329 18.049C13.2937 17.6838 16.011 19.3476 16.0528 19.3476C16.5544 19.5911 17.0561 19.4288 17.3069 18.9012L17.8085 17.8867C18.0176 17.4809 17.934 17.0345 17.4323 16.6693C17.3905 16.6693 14.4642 15.1272 9.94938 15.1272C0.250824 15.1678 0 22.6753 0 23.5275Z" fill="white"/>
<path fill-rule="evenodd" clip-rule="evenodd" d="M110.737 11.3915H99.9395C99.5242 11.3915 99.192 11.1876 99.0259 10.8612C98.8182 10.5349 98.8182 10.1269 99.0259 9.80056L104.425 0.621877C104.632 0.295523 104.964 0.0915527 105.338 0.0915527C105.754 0.0915527 106.086 0.295523 106.252 0.621877L111.651 9.80056C111.858 10.1269 111.858 10.5349 111.651 10.8612C111.485 11.2284 111.152 11.3915 110.737 11.3915Z" fill="white"/>
<path d="M118.116 28.3152C119.163 28.3152 120 29.134 120 30.1576C120 31.1812 119.163 32 118.116 32C117.069 32 116.231 31.1812 116.231 30.1576C116.231 29.175 117.069 28.3152 118.116 28.3152ZM118.116 31.7544C118.995 31.7544 119.665 31.0584 119.665 30.1576C119.665 29.2569 118.995 28.5608 118.116 28.5608C117.236 28.5608 116.566 29.2569 116.566 30.1576C116.566 31.0584 117.236 31.7544 118.116 31.7544ZM117.404 29.0931H118.241C118.744 29.0931 118.995 29.2978 118.995 29.7072C118.995 30.0757 118.786 30.3214 118.409 30.3214L119.079 31.2631H118.702L118.074 30.3214H117.781V31.2631H117.404V29.0931ZM117.781 30.0348H118.199C118.493 30.0348 118.66 29.9938 118.66 29.7072C118.66 29.4616 118.451 29.3797 118.199 29.3797H117.781V30.0348Z" fill="white"/>
</g>
<defs>
<clipPath id="clip0_174_36">
<rect width="120" height="32" fill="white"/>
</clipPath>
</defs>
</svg>
