<svg width="120" height="32" viewBox="0 0 120 32" fill="none" xmlns="http://www.w3.org/2000/svg">
<g clip-path="url(#clip0_246_270)">
<mask id="mask0_246_270" style="mask-type:luminance" maskUnits="userSpaceOnUse" x="0" y="0" width="120" height="32">
<path d="M120 0H0V32H120V0Z" fill="white"/>
</mask>
<g mask="url(#mask0_246_270)">
<mask id="mask1_246_270" style="mask-type:luminance" maskUnits="userSpaceOnUse" x="0" y="0" width="120" height="32">
<path d="M120 0H0V32H120V0Z" fill="white"/>
</mask>
<g mask="url(#mask1_246_270)">
<path d="M31.4543 16.0558C31.2459 15.6475 30.704 15.3208 30.2871 15.3208H29.3699C28.9113 15.3208 28.4111 15.6475 28.2026 16.0558L20.9072 30.9177C20.6987 31.3259 20.9072 31.5709 21.3657 31.5709H23.0333C23.7003 31.5709 23.9921 31.2851 24.1589 30.9177C24.3256 30.5502 24.7425 29.7744 24.8259 29.6111C24.9093 29.407 25.2428 29.2437 25.7013 29.2437H33.4971C33.9557 29.2437 34.2475 29.3253 34.3725 29.5703C34.4559 29.7336 34.8728 30.4277 35.0396 30.836C35.248 31.2035 35.5815 31.5301 36.2068 31.5301H38.6248C39.0833 31.5301 39.2501 31.2035 39.125 30.8768C39 30.6319 31.4543 16.0558 31.4543 16.0558ZM26.8686 26.9572C26.41 26.9572 26.2016 26.6306 26.41 26.2223L29.2865 20.2204C29.495 19.8121 29.7868 19.8121 29.9536 20.2204L32.7467 26.2223C32.9134 26.6306 32.705 26.9572 32.2881 26.9572H26.8686ZM87.442 16.1783C87.442 16.3416 87.442 30.591 87.442 30.8768C87.442 31.2851 87.8172 31.5709 88.2757 31.5709H90.2768C90.7354 31.5709 91.1106 31.2851 91.1106 30.836V16.1374C91.1106 15.6883 90.8187 15.3208 90.3602 15.3208H88.3174C87.8172 15.3617 87.442 15.6067 87.442 16.1783ZM54.2579 25.4057C54.0078 25.0382 54.1329 24.6299 54.5914 24.5074C54.5914 24.5074 56.3007 24.0175 57.1344 23.2826C57.9682 22.5476 58.3851 21.5269 58.3851 20.1795C58.3851 19.2813 58.2183 18.5464 57.9265 17.9339C57.593 17.3215 57.1761 16.8315 56.5508 16.4641C55.9672 16.0966 55.2585 15.8108 54.4247 15.6475C53.5909 15.4842 52.507 15.4025 52.507 15.4025C52.0485 15.4025 51.3397 15.3617 50.8812 15.3617H42.6685C42.21 15.3617 41.8348 15.7291 41.8348 16.1783V30.8768C41.8348 31.3259 42.21 31.6118 42.6685 31.6118H44.6279C45.0865 31.6118 45.4617 31.3259 45.4617 30.8768V25.0382H49.1719C49.6305 25.0382 50.2142 25.324 50.4643 25.6915L54.2996 30.9585C54.6748 31.4076 55.0083 31.6118 55.4252 31.6118H57.9682C58.4268 31.6118 58.4685 31.2035 58.3434 30.9993C58.0933 30.7135 54.2579 25.4057 54.2579 25.4057ZM52.7155 22.4252C52.2152 22.5476 51.6316 22.5476 51.6316 22.5476C51.173 22.5476 50.4643 22.5885 50.0057 22.5885H46.2121C45.7535 22.5885 45.3783 22.221 45.3783 21.7719V18.7913C45.3783 18.3422 45.7535 17.9748 46.2121 17.9748H50.0057C50.4643 17.9748 51.173 17.9748 51.6316 18.0156C51.6316 18.0156 52.2152 18.0564 52.7155 18.1381C53.2157 18.2606 53.6326 18.4239 53.9244 18.628C54.2163 18.8322 54.4247 19.0771 54.5498 19.363C54.6748 19.6488 54.7582 19.9346 54.7582 20.2612C54.7582 20.5878 54.6748 20.9145 54.5498 21.1594C54.4247 21.4452 54.2163 21.6902 53.9244 21.8944C53.5909 22.1393 53.2157 22.3027 52.7155 22.4252ZM111.746 15.3617C111.288 15.3617 110.954 15.6475 110.954 16.0558C110.954 16.2599 110.954 25.4465 110.954 25.4465C110.954 25.8956 110.704 25.9773 110.371 25.6507L100.741 15.8925C100.449 15.5658 99.9902 15.3208 99.3649 15.3208H97.5723C96.9886 15.3208 96.7385 15.6067 96.7385 15.9333C96.7385 16.2191 96.7385 30.6727 96.7385 30.9585C96.7385 31.2443 97.0303 31.5301 97.4889 31.5301H99.2815C99.7401 31.5301 100.032 31.2851 100.032 30.8768C100.032 30.6727 100.032 20.9553 100.032 20.9553C100.032 20.5062 100.282 20.4245 100.616 20.7511L110.662 30.9585C110.996 31.2851 111.371 31.5301 112.038 31.5301H113.414C113.872 31.5301 114.248 31.1626 114.248 30.7135V16.1374C114.248 15.6883 113.872 15.3208 113.414 15.3208H111.746V15.3617ZM72.5592 24.5074C72.3507 24.8749 71.9755 24.8749 71.7671 24.5074L67.0563 16.0558C66.8479 15.6475 66.431 15.3208 65.889 15.3208H63.346C62.8875 15.3208 62.5123 15.6883 62.5123 16.1374V30.836C62.5123 31.2851 62.8041 31.5709 63.346 31.5709H64.9302C65.3888 31.5709 65.7223 31.2851 65.7223 30.8768C65.7223 30.6727 65.7223 20.1795 65.764 20.1795L71.642 30.8768C71.8505 31.2443 72.3924 31.2851 72.6009 30.8768C72.6009 30.8768 78.4789 20.2204 78.5206 20.2204C78.5206 20.2204 78.5206 30.5502 78.5206 30.8768C78.5206 31.2851 78.8541 31.5709 79.3127 31.5709H81.147C81.6056 31.5709 81.9808 31.3668 81.9808 30.7543V16.1374C81.9808 15.6883 81.6056 15.3208 81.147 15.3208H78.6874C78.0621 15.3208 77.6869 15.6475 77.4784 16.0149L72.5592 24.5074Z" fill="black"/>
<path d="M0 23.5273C0 31.4 8.27721 31.8058 9.94938 31.8058C15.4675 31.8058 17.7667 30.3449 17.8922 30.3043C18.2266 30.1014 18.6446 29.7362 18.6446 29.0057V23.5678C18.6446 23.0809 18.2266 22.6751 17.7249 22.6751H10.7855C10.2838 22.6751 9.94938 23.0809 9.94938 23.5678V24.136C9.94938 24.623 10.2838 25.0288 10.7855 25.0288H14.7987C15.1749 25.0288 15.5093 25.3534 15.5093 25.7186C15.5093 25.7186 15.5093 28.1129 15.5093 28.2347C14.715 28.5593 11.1199 29.5738 8.23541 28.884C4.01319 27.9506 3.67876 24.5824 3.67876 23.5678C3.67876 22.7156 3.92959 18.4952 9.11329 18.0488C13.2937 17.6836 16.011 19.3474 16.0528 19.3474C16.5544 19.5909 17.0561 19.4286 17.3069 18.901L17.8085 17.8865C18.0176 17.4807 17.934 17.0343 17.4323 16.6691C17.3905 16.6691 14.4642 15.127 9.94938 15.127C0.250824 15.1676 0 22.6751 0 23.5273Z" fill="black"/>
<path fill-rule="evenodd" clip-rule="evenodd" d="M110.737 11.3913H99.9395C99.5242 11.3913 99.192 11.1874 99.0259 10.861C98.8182 10.5347 98.8182 10.1267 99.0259 9.80032L104.425 0.621633C104.632 0.295279 104.964 0.0913086 105.338 0.0913086C105.754 0.0913086 106.086 0.295279 106.252 0.621633L111.651 9.80032C111.858 10.1267 111.858 10.5347 111.651 10.861C111.485 11.2282 111.152 11.3913 110.737 11.3913Z" fill="black"/>
<path d="M118.116 28.3149C119.163 28.3149 120 29.1337 120 30.1573C120 31.1809 119.163 31.9997 118.116 31.9997C117.069 31.9997 116.231 31.1809 116.231 30.1573C116.231 29.1747 117.069 28.3149 118.116 28.3149ZM118.116 31.7541C118.995 31.7541 119.665 31.0581 119.665 30.1573C119.665 29.2566 118.995 28.5605 118.116 28.5605C117.236 28.5605 116.566 29.2566 116.566 30.1573C116.566 31.0581 117.236 31.7541 118.116 31.7541ZM117.404 29.0928H118.241C118.744 29.0928 118.995 29.2975 118.995 29.7069C118.995 30.0754 118.786 30.3211 118.409 30.3211L119.079 31.2628H118.702L118.074 30.3211H117.781V31.2628H117.404V29.0928ZM117.781 30.0345H118.199C118.493 30.0345 118.66 29.9935 118.66 29.7069C118.66 29.4613 118.451 29.3794 118.199 29.3794H117.781V30.0345Z" fill="black"/>
</g>
</g>
</g>
<defs>
<clipPath id="clip0_246_270">
<rect width="120" height="32" fill="white"/>
</clipPath>
</defs>
</svg>
