<?xml version="1.0" encoding="UTF-8"?>
<svg width="120px" height="32px" viewBox="0 0 120 32" version="1.1" xmlns="http://www.w3.org/2000/svg" xmlns:xlink="http://www.w3.org/1999/xlink">
    <!-- Generator: Sketch 54.1 (76490) - https://sketchapp.com -->
    <title>garmin-logo</title>
    <desc>Created with Sketch.</desc>
    <g id="Page-1" stroke="none" stroke-width="1" fill="none" fill-rule="evenodd">
        <g id="sync-page" transform="translate(-410.000000, -288.000000)">
            <g id="Partners" transform="translate(402.000000, 139.000000)">
                <g id="garmin-logo" transform="translate(8.000000, 149.000000)">
                    <path d="M31.4546198,16.0561404 C31.2461774,15.6478469 30.7042272,15.3212121 30.2873425,15.3212121 L29.370196,15.3212121 C28.9116227,15.3212121 28.411361,15.6478469 28.2029186,16.0561404 L20.9074353,30.9180223 C20.6989929,31.3263158 20.9074353,31.5712919 21.3660085,31.5712919 L23.0335476,31.5712919 C23.7005632,31.5712919 23.9923825,31.2854864 24.1591364,30.9180223 C24.3258903,30.5505582 24.7427751,29.7748006 24.8261521,29.6114833 C24.909529,29.4073365 25.2430368,29.2440191 25.7016101,29.2440191 L33.4973551,29.2440191 C33.9559284,29.2440191 34.2477477,29.3256778 34.3728131,29.5706539 C34.4561901,29.7339713 34.8730749,30.4280702 35.0398288,30.8363636 C35.2482712,31.2038278 35.581779,31.5304625 36.2071061,31.5304625 L38.6250377,31.5304625 C39.083611,31.5304625 39.2503649,31.2038278 39.1252995,30.877193 C39.000234,30.6322169 31.4546198,16.0561404 31.4546198,16.0561404 Z M26.8688874,26.9575758 C26.4103142,26.9575758 26.2018718,26.630941 26.4103142,26.2226475 L29.286819,20.2207337 C29.4952614,19.8124402 29.7870807,19.8124402 29.9538347,20.2207337 L32.7469626,26.2226475 C32.9137165,26.630941 32.7052741,26.9575758 32.2883893,26.9575758 L26.8688874,26.9575758 Z M87.4422436,16.1786284 C87.4422436,16.3419458 87.4422436,30.5913876 87.4422436,30.877193 C87.4422436,31.2854864 87.8174399,31.5712919 88.2760131,31.5712919 L90.27706,31.5712919 C90.7356332,31.5712919 91.1108295,31.2854864 91.1108295,30.8363636 L91.1108295,16.137799 C91.1108295,15.6886762 90.8190102,15.3212121 90.3604369,15.3212121 L88.3177016,15.3212121 C87.8174399,15.3620415 87.4422436,15.6070175 87.4422436,16.1786284 Z M54.2582164,25.4060606 C54.0080855,25.0385965 54.133151,24.630303 54.5917242,24.507815 C54.5917242,24.507815 56.3009517,24.0178628 57.1347213,23.2829346 C57.9684908,22.5480064 58.3853755,21.5272727 58.3853755,20.1799043 C58.3853755,19.2816587 58.2186216,18.5467305 57.9268023,17.9342903 C57.5932945,17.3218501 57.1764097,16.8318979 56.5510826,16.4644338 C55.9674439,16.0969697 55.2587398,15.8111643 54.4249703,15.6478469 C53.5912008,15.4845295 52.5073004,15.4028708 52.5073004,15.4028708 C52.0487271,15.4028708 51.340023,15.3620415 50.8814498,15.3620415 L42.6688199,15.3620415 C42.2102467,15.3620415 41.8350504,15.7295056 41.8350504,16.1786284 L41.8350504,30.877193 C41.8350504,31.3263158 42.2102467,31.6121212 42.6688199,31.6121212 L44.6281783,31.6121212 C45.0867516,31.6121212 45.4619479,31.3263158 45.4619479,30.877193 C45.4619479,30.877193 45.4619479,25.0385965 45.4619479,25.0385965 C45.4619479,25.0385965 45.4619479,25.0385965 45.4619479,25.0385965 C45.4619479,25.0385965 49.1722223,25.0385965 49.1722223,25.0385965 C49.6307955,25.0385965 50.2144342,25.3244019 50.464565,25.691866 L54.2999049,30.9588517 C54.6751011,31.4079745 55.008609,31.6121212 55.4254937,31.6121212 L57.9684908,31.6121212 C58.427064,31.6121212 58.4687525,31.2038278 58.3436871,30.999681 C58.0935562,30.7138756 54.2582164,25.4060606 54.2582164,25.4060606 Z M52.7157428,22.4255183 C52.215481,22.5480064 51.6318424,22.5480064 51.6318424,22.5480064 C51.1732691,22.5480064 50.464565,22.5888357 50.0059918,22.5888357 L46.2123404,22.5888357 C45.7537672,22.5888357 45.3785709,22.2213716 45.3785709,21.7722488 L45.3785709,18.7917065 C45.3785709,18.3425837 45.7537672,17.9751196 46.2123404,17.9751196 L50.0059918,17.9751196 C50.464565,17.9751196 51.1732691,17.9751196 51.6318424,18.015949 C51.6318424,18.015949 52.215481,18.0567783 52.7157428,18.138437 C53.2160045,18.260925 53.6328892,18.4242424 53.9247086,18.6283892 C54.2165279,18.8325359 54.4249703,19.077512 54.5500357,19.3633174 C54.6751011,19.6491228 54.7584781,19.9349282 54.7584781,20.261563 C54.7584781,20.5881978 54.6751011,20.9148325 54.5500357,21.1598086 C54.4249703,21.445614 54.2165279,21.6905901 53.9247086,21.8947368 C53.5912008,22.1397129 53.2160045,22.3030303 52.7157428,22.4255183 Z M111.746625,15.3620415 C111.288052,15.3620415 110.954544,15.6478469 110.954544,16.0561404 C110.954544,16.2602871 110.954544,25.44689 110.954544,25.44689 C110.954544,25.8960128 110.704413,25.9776715 110.370906,25.6510367 L100.740868,15.892823 C100.449048,15.5661882 99.990475,15.3212121 99.3651478,15.3212121 L97.5725433,15.3212121 C96.9889047,15.3212121 96.7387738,15.6070175 96.7387738,15.9336523 C96.7387738,16.2194577 96.7387738,30.6730463 96.7387738,30.9588517 C96.7387738,31.2446571 97.0305931,31.5304625 97.4891664,31.5304625 L99.2817709,31.5304625 C99.7403441,31.5304625 100.032163,31.2854864 100.032163,30.877193 C100.032163,30.6730463 100.032163,20.9556619 100.032163,20.9556619 C100.032163,20.5065391 100.282294,20.4248804 100.615802,20.7515152 L110.662725,30.9588517 C110.996233,31.2854864 111.371429,31.5304625 112.038445,31.5304625 L113.414164,31.5304625 C113.872738,31.5304625 114.247934,31.1629984 114.247934,30.7138756 L114.247934,16.137799 C114.247934,15.6886762 113.872738,15.3212121 113.414164,15.3212121 L111.746625,15.3212121 L111.746625,15.3620415 Z M72.5594575,24.507815 C72.3510151,24.8752791 71.9758188,24.8752791 71.7673765,24.507815 L67.0565786,16.0561404 C66.8481362,15.6478469 66.4312515,15.3212121 65.8893013,15.3212121 L63.3463042,15.3212121 C62.887731,15.3212121 62.5125347,15.6886762 62.5125347,16.137799 L62.5125347,30.8363636 C62.5125347,31.2854864 62.804354,31.5712919 63.3463042,31.5712919 L64.9304663,31.5712919 C65.3890396,31.5712919 65.7225474,31.2854864 65.7225474,30.877193 C65.7225474,30.6730463 65.7225474,20.1799043 65.7642359,20.1799043 C65.7642359,20.1799043 71.642311,30.877193 71.642311,30.877193 C71.8507534,31.2446571 72.3927036,31.2854864 72.601146,30.877193 C72.601146,30.877193 78.4792212,20.2207337 78.5209096,20.2207337 C78.5209096,20.2207337 78.5209096,30.5505582 78.5209096,30.877193 C78.5209096,31.2854864 78.8544174,31.5712919 79.3129907,31.5712919 L81.1472836,31.5712919 C81.6058569,31.5712919 81.9810532,31.3671451 81.9810532,30.7547049 L81.9810532,16.137799 C81.9810532,15.6886762 81.6058569,15.3212121 81.1472836,15.3212121 L78.6876635,15.3212121 C78.0623364,15.3212121 77.6871401,15.6478469 77.4786977,16.015311 L72.5594575,24.507815 Z" id="Shape" fill="#231F20" fill-rule="nonzero"></path>
                    <path d="M0,23.5275382 C0,31.4002507 8.27721158,31.8060606 9.94937553,31.8060606 C15.4675166,31.8060606 17.766742,30.3451449 17.8921543,30.3045639 C18.2265871,30.1016589 18.6446281,29.73643 18.6446281,29.0059721 L18.6446281,23.5681191 C18.6446281,23.0811472 18.2265871,22.6753373 17.7249379,22.6753373 L10.7854575,22.6753373 C10.2838083,22.6753373 9.94937553,23.0811472 9.94937553,23.5681191 L9.94937553,24.136253 C9.94937553,24.623225 10.2838083,25.0290349 10.7854575,25.0290349 L14.798651,25.0290349 C15.1748879,25.0290349 15.5093207,25.3536828 15.5093207,25.7189117 C15.5093207,25.7189117 15.5093207,28.1131903 15.5093207,28.2349333 C14.7150428,28.5595812 11.1198903,29.574106 8.23540748,28.8842292 C4.01319349,27.9508663 3.6787607,24.582644 3.6787607,23.5681191 C3.6787607,22.7159183 3.92958529,18.4954951 9.11329356,18.0491042 C13.2937034,17.6838752 16.0109699,19.3476959 16.052774,19.3476959 C16.5544232,19.5911819 17.0560723,19.4288579 17.3068969,18.901305 C17.3068969,18.901305 17.8085461,17.8867802 17.8085461,17.8867802 C18.0175666,17.4809703 17.9339584,17.0345794 17.4323092,16.6693504 C17.3905051,16.6693504 14.4642182,15.1272727 9.94937553,15.1272727 C0.250824593,15.1678537 0,22.6753373 0,23.5275382 Z" id="Path" fill="#231F20" fill-rule="nonzero"></path>
                    <g id="SVGID_1_-link" transform="translate(98.776860, 0.000000)" fill="#0071CE">
                        <path d="M11.9603306,11.3915987 L1.16280992,11.3915987 C0.747520661,11.3915987 0.415289256,11.187628 0.249173554,10.8612748 C0.0415289256,10.5349216 0.0415289256,10.1269801 0.249173554,9.80062696 L5.64793388,0.621943574 C5.85557851,0.295590387 6.18780992,0.0916196447 6.56157025,0.0916196447 C6.9768595,0.0916196447 7.30909091,0.295590387 7.47520661,0.621943574 L12.8739669,9.80062696 C13.0816116,10.1269801 13.0816116,10.5349216 12.8739669,10.8612748 C12.7078512,11.2284222 12.3756198,11.3915987 11.9603306,11.3915987 Z" id="SVGID_1_"></path>
                    </g>
                    <path d="M118.115702,28.3151515 C119.162534,28.3151515 120,29.1340067 120,30.1575758 C120,31.1811448 119.162534,32 118.115702,32 C117.068871,32 116.231405,31.1811448 116.231405,30.1575758 C116.231405,29.1749495 117.068871,28.3151515 118.115702,28.3151515 Z M118.115702,31.7543434 C118.995041,31.7543434 119.665014,31.0583165 119.665014,30.1575758 C119.665014,29.256835 118.995041,28.5608081 118.115702,28.5608081 C117.236364,28.5608081 116.566391,29.256835 116.566391,30.1575758 C116.566391,31.0583165 117.236364,31.7543434 118.115702,31.7543434 Z M117.403857,29.093064 L118.241322,29.093064 C118.743802,29.093064 118.995041,29.2977778 118.995041,29.7072054 C118.995041,30.0756902 118.785675,30.3213468 118.408815,30.3213468 L119.078788,31.2630303 L118.701928,31.2630303 L118.073829,30.3213468 L117.780716,30.3213468 L117.780716,31.2630303 L117.403857,31.2630303 L117.403857,29.093064 Z M117.780716,30.0347475 L118.199449,30.0347475 C118.492562,30.0347475 118.660055,29.9938047 118.660055,29.7072054 C118.660055,29.4615488 118.450689,29.3796633 118.199449,29.3796633 L117.780716,29.3796633 L117.780716,30.0347475 Z" id="Shape" fill="#231F20" fill-rule="nonzero"></path>
                </g>
            </g>
        </g>
    </g>
</svg>
