<svg width="120" height="20" viewBox="0 0 120 20" fill="none" xmlns="http://www.w3.org/2000/svg">
<g clip-path="url(#clip0_246_283)">
<mask id="mask0_246_283" style="mask-type:luminance" maskUnits="userSpaceOnUse" x="0" y="0" width="120" height="20">
<path d="M120 0H0V20H120V0Z" fill="white"/>
</mask>
<g mask="url(#mask0_246_283)">
<mask id="mask1_246_283" style="mask-type:luminance" maskUnits="userSpaceOnUse" x="0" y="0" width="120" height="20">
<path d="M120 0H0V20H120V0Z" fill="white"/>
</mask>
<g mask="url(#mask1_246_283)">
<path d="M118.925 16.3855C118.9 15.8447 118.466 15.7476 118.024 15.7476C117.652 15.7476 117.283 15.7476 116.913 15.7476C116.913 16.5996 116.913 17.4522 116.913 18.3049C117.017 18.3049 117.122 18.3049 117.225 18.3049C117.225 17.9125 117.225 17.5196 117.225 17.1261C117.416 17.1261 117.607 17.1261 117.797 17.1261C118.039 17.5196 118.28 17.9125 118.522 18.3049C118.647 18.3049 118.771 18.3049 118.895 18.3049C118.639 17.9108 118.384 17.5168 118.127 17.1228C118.611 17.1013 118.949 16.9307 118.925 16.3855ZM117.225 16.8772C117.225 16.5742 117.225 16.2707 117.225 15.9689C117.469 15.9689 117.711 15.9689 117.952 15.9689C118.262 15.9689 118.587 16.0312 118.587 16.4241C118.587 16.8165 118.262 16.8772 117.952 16.8772C117.711 16.8772 117.469 16.8772 117.225 16.8772Z" fill="black"/>
<path d="M117.72 14.6709C116.459 14.6709 115.437 15.6951 115.437 16.9601C115.437 18.224 116.459 19.2471 117.72 19.2471C118.98 19.2471 120 18.224 120 16.9601C120 15.6951 118.98 14.6709 117.72 14.6709ZM117.72 18.9457C116.631 18.9457 115.805 18.0257 115.805 16.9601C115.805 15.8924 116.631 14.9723 117.72 14.9723C118.806 14.9723 119.632 15.8929 119.632 16.9601C119.632 18.0257 118.806 18.9457 117.72 18.9457Z" fill="black"/>
<path d="M45.6071 8.61377C46.0699 14.5236 41.2126 19.7332 35.3292 19.9148C29.1116 20.1074 24.6122 14.6875 25.8405 8.61377C32.4303 8.61377 39.0184 8.61377 45.6071 8.61377Z" fill="black"/>
<path d="M44.9665 5.92216C43.5202 2.15433 39.9379 -0.100345 36.0136 0.00343399C32.1388 0.105539 28.6033 2.45339 26.8457 5.92216C32.8856 5.92216 38.9261 5.92216 44.9665 5.92216Z" fill="black"/>
<path d="M6.01876 8.49891C9.55132 8.49891 13.0839 8.49891 16.6154 8.49891C17.3474 8.49891 17.9831 7.90296 18.0503 7.17101C18.1203 6.40645 17.5468 5.79225 16.7817 5.79225C12.554 5.79225 8.32569 5.79225 4.09796 5.79225C4.63449 4.22553 5.17211 2.65825 5.70918 1.09153C5.84689 0.689622 6.23414 0.403809 6.66049 0.403809C10.3825 0.403809 14.1046 0.403809 17.8267 0.403809C21.6297 0.403809 24.4842 3.54168 24.1316 7.33963C23.7962 10.9778 20.6354 13.8675 16.9971 13.8697C14.6714 13.8708 12.3463 13.8713 10.0212 13.8719C9.37285 13.8724 8.81429 14.2815 8.61599 14.8609C8.19349 16.0926 7.77099 17.3265 7.34794 18.5588C7.21023 18.9607 6.82574 19.2471 6.39939 19.2471C4.68571 19.2471 2.97094 19.2471 1.25781 19.2471C0.346713 19.2471 -0.214598 18.3797 0.0779004 17.525C0.795651 15.4292 1.5145 13.3329 2.2328 11.2354C2.78255 9.63 4.31279 8.49891 6.01876 8.49891Z" fill="black"/>
<path d="M104.393 19.2465C103.998 17.7605 103.6 16.2739 103.204 14.7863C103.055 14.2218 102.581 13.8708 102.005 13.8708C101.456 13.8713 100.907 13.8713 100.357 13.8713C99.7093 13.8719 99.1496 14.281 98.9513 14.8603C98.5299 16.092 98.1074 17.326 97.6849 18.5582C97.5467 18.9601 97.1616 19.2465 96.7353 19.2465C95.0227 19.2465 93.3068 19.2465 91.5942 19.2465C90.6832 19.2465 90.1213 18.3791 90.4138 17.5244C91.1332 15.4286 91.8498 13.3323 92.5692 11.2349C93.119 9.63 94.6481 8.49891 96.3541 8.49891C99.8867 8.49891 103.419 8.49891 106.951 8.49891C107.683 8.49891 108.318 7.90296 108.386 7.17101C108.456 6.40645 107.882 5.79225 107.116 5.79225C102.889 5.79225 98.661 5.79225 94.4338 5.79225C94.9704 4.22553 95.5074 2.65825 96.0445 1.09153C96.1817 0.689622 96.5678 0.403809 96.9969 0.403809C100.718 0.403809 104.441 0.403809 108.162 0.403809C111.964 0.403809 114.821 3.54168 114.467 7.33963C114.231 9.90531 112.59 12.0973 110.366 13.1692C110.908 15.1871 111.448 17.2066 111.99 19.2471C109.458 19.2465 106.926 19.2465 104.393 19.2465Z" fill="black"/>
<path d="M57.6981 5.78759C58.1786 4.3929 58.6608 2.99711 59.1407 1.60131C59.3461 1.00863 58.9459 0.403809 58.3098 0.403809C56.4205 0.403809 54.5318 0.403809 52.6425 0.403809C52.2141 0.403809 51.8255 0.689375 51.6865 1.09094C51.1468 2.6563 50.6071 4.22222 50.0674 5.78759C52.6115 5.78759 55.1546 5.78759 57.6981 5.78759Z" fill="black"/>
<path d="M62.4586 19.2471C57.4053 19.2471 52.3532 19.2471 47.3005 19.2471C46.3878 19.2471 45.8246 18.3781 46.1183 17.5218C47.1525 14.5082 48.185 11.4936 49.2186 8.47949C51.7552 8.47949 54.2929 8.47949 56.83 8.47949C56.4755 9.51244 56.1221 10.5448 55.7677 11.5767C55.4745 12.4335 56.0504 13.303 56.962 13.303C59.1142 13.303 61.2671 13.303 63.4199 13.303C64.332 13.303 64.9145 14.1704 64.6214 15.025C64.2177 16.2019 63.8136 17.38 63.411 18.5575C63.2708 18.9602 62.8848 19.2471 62.4586 19.2471Z" fill="black"/>
<path d="M79.8904 0.764495C78.4959 2.43923 77.1007 4.11396 75.7051 5.78759C79.4622 5.78759 83.2209 5.78759 86.9802 5.78759C86.8395 4.25647 86.6982 2.72424 86.5575 1.19202C86.5145 0.729144 86.1364 0.403809 85.674 0.403809C84.0029 0.403809 82.3313 0.403809 80.6597 0.403809C80.3617 0.403809 80.0808 0.536926 79.8904 0.764495Z" fill="black"/>
<path d="M81.4783 19.2471C83.38 19.2471 85.2806 19.2471 87.1823 19.2471C87.7551 19.2471 88.2367 18.7242 88.1837 18.1476C87.8882 14.9253 87.5938 11.7018 87.2977 8.47949C82.7007 8.47949 78.1058 8.47949 73.5098 8.47949C71.132 11.3391 68.7542 14.1981 66.3759 17.0582C65.6523 17.9267 66.1582 19.2471 67.317 19.2471C68.8288 19.2471 70.3394 19.2471 71.8495 19.2471C72.1489 19.2471 72.4322 19.0981 72.6211 18.8704C73.8699 17.3706 75.1166 15.8702 76.3643 14.3703C76.6377 14.0402 77.0464 13.8602 77.475 13.8602C77.9859 13.8602 78.4952 13.8602 79.0055 13.8602C79.67 13.8602 80.2157 14.3216 80.277 14.9895C80.3825 16.1399 80.4886 17.2903 80.593 18.4395C80.6366 18.9042 81.0155 19.2471 81.4783 19.2471Z" fill="black"/>
</g>
</g>
</g>
<defs>
<clipPath id="clip0_246_283">
<rect width="120" height="20" fill="white"/>
</clipPath>
</defs>
</svg>
