<?xml version="1.0" encoding="UTF-8"?>
<svg width="120px" height="20px" viewBox="0 0 120 20" version="1.1" xmlns="http://www.w3.org/2000/svg" xmlns:xlink="http://www.w3.org/1999/xlink">
    <!-- Generator: Sketch 54.1 (76490) - https://sketchapp.com -->
    <title>polar</title>
    <desc>Created with Sketch.</desc>
    <g id="Page-1" stroke="none" stroke-width="1" fill="none" fill-rule="evenodd">
        <g id="sync-page" transform="translate(-870.000000, -587.000000)" fill-rule="nonzero">
            <g id="Partners" transform="translate(402.000000, 139.000000)">
                <g id="polar" transform="translate(468.000000, 448.000000)">
                    <path d="M118.925014,16.3855123 C118.899265,15.8446941 118.465366,15.7475676 118.023797,15.7475676 C117.651805,15.7475676 117.2831,15.7475676 116.912752,15.7475676 C116.912752,16.5996321 116.912752,17.4522485 116.912752,18.3048649 C117.016296,18.3048649 117.121484,18.3048649 117.225028,18.3048649 C117.225028,17.9124958 117.225028,17.5195748 117.225028,17.126102 C117.41568,17.126102 117.606881,17.126102 117.796438,17.126102 C118.038589,17.5195748 118.279644,17.9124958 118.521795,18.3048649 C118.646705,18.3048649 118.771068,18.3048649 118.894334,18.3048649 C118.638487,17.9108402 118.383188,17.5168155 118.126245,17.1227909 C118.611095,17.1012685 118.948572,16.9307453 118.925014,16.3855123 Z M117.225028,16.8772153 C117.225028,16.5742468 117.225028,16.2707264 117.225028,15.9688615 C117.468274,15.9688615 117.710425,15.9688615 117.952028,15.9688615 C118.262113,15.9688615 118.586989,16.0312212 118.586989,16.4241421 C118.586989,16.8165112 118.262113,16.8772153 117.952028,16.8772153 C117.710425,16.8772153 117.468822,16.8772153 117.225028,16.8772153 Z" id="Shape" fill="#231F20"></path>
                    <path d="M117.720043,14.6708108 C116.458405,14.6708108 115.436242,15.6950326 115.436242,16.9600208 C115.436242,18.2239072 116.458405,19.247027 117.720043,19.247027 C118.979485,19.247027 120,18.2239072 120,16.9600208 C120,15.6950326 118.979485,14.6708108 117.720043,14.6708108 Z M117.720043,18.9456557 C116.630871,18.9456557 115.804242,18.0255641 115.804242,16.9600208 C115.804242,15.8922738 116.630871,14.9721821 117.720043,14.9721821 C118.80592,14.9721821 119.631999,15.8928247 119.631999,16.9600208 C119.631999,18.0255641 118.805371,18.9456557 117.720043,18.9456557 Z" id="Shape" fill="#231F20"></path>
                    <path d="M45.6070251,8.61405405 C46.0698356,14.5238847 41.2125337,19.7334748 35.3290956,19.9150186 C29.1115281,20.1075986 24.6121035,14.6877707 25.8403741,8.61405405 C32.4301782,8.61405405 39.0183255,8.61405405 45.6070251,8.61405405 Z" id="Path" fill="#EF3E42"></path>
                    <path d="M44.966443,5.92216216 C43.5201221,2.15432926 39.9378658,-0.100344634 36.013552,0.00343397103 C32.1387319,0.105538728 28.6032199,2.45339018 26.8456376,5.92216216 C32.8855394,5.92216216 38.9259912,5.92216216 44.966443,5.92216216 Z" id="Path" fill="#EF3E42"></path>
                    <path d="M6.01875709,8.49888752 C9.55132209,8.49888752 13.0838871,8.49888752 16.6153504,8.49888752 C17.3474226,8.49888752 17.983097,7.90293574 18.0503,7.17098755 C18.1202573,6.40642234 17.5468283,5.79222714 16.7817054,5.79222714 C12.5539748,5.79222714 8.32569335,5.79222714 4.09796273,5.79222714 C4.63448516,4.2255042 5.17210927,2.65822844 5.70918254,1.0915055 C5.84689364,0.68959739 6.23413724,0.403783784 6.66049079,0.403783784 C10.3825463,0.403783784 14.1046017,0.403783784 17.8266572,0.403783784 C21.6296868,0.403783784 24.4841624,3.54165231 24.131622,7.339601 C23.7961577,10.9777815 20.6354127,13.867429 16.9970856,13.8696403 C14.6714206,13.8707459 12.3463065,13.8712988 10.0211923,13.8718516 C9.37284851,13.8724044 8.81429231,14.2814994 8.61598834,14.8608662 C8.1934907,16.0925736 7.77099306,17.3264923 7.34794457,18.5587525 C7.21023348,18.9606606 6.8257441,19.247027 6.39939055,19.247027 C4.68571369,19.247027 2.97093513,19.247027 1.25780911,19.247027 C0.346712509,19.247027 -0.214597914,18.3796353 0.0779004514,17.5249586 C0.795650678,15.4291764 1.51450259,13.3328414 2.23280366,11.2354008 C2.78254636,9.62997966 4.31279204,8.49888752 6.01875709,8.49888752 Z" id="Path" fill="#231F20"></path>
                    <path d="M104.392737,19.2464742 C103.997232,17.7604646 103.599522,16.2739021 103.203466,14.786234 C103.054187,14.2217936 102.580461,13.8707459 102.00483,13.8707459 C101.455638,13.8712988 100.906447,13.8712988 100.356705,13.8712988 C99.7089125,13.8718516 99.1492552,14.2809465 98.9509514,14.8603134 C98.5295559,16.0920207 98.1070587,17.3259394 97.6845615,18.5581997 C97.5462997,18.9601078 97.1612599,19.2464742 96.7349068,19.2464742 C95.0223334,19.2464742 93.306455,19.2464742 91.5938816,19.2464742 C90.6827859,19.2464742 90.1209252,18.3790824 90.4134233,17.5244058 C91.1328253,15.4286236 91.8494731,13.3322886 92.5688751,11.2348479 C93.1186172,9.62997966 94.6477596,8.49888752 96.3537229,8.49888752 C99.8862842,8.49888752 103.418295,8.49888752 106.950856,8.49888752 C107.682927,8.49888752 108.31805,7.90293574 108.385804,7.17098755 C108.455761,6.40642234 107.881782,5.79222714 107.116109,5.79222714 C102.888383,5.79222714 98.6606568,5.79222714 94.4334814,5.79222714 C94.9700033,4.2255042 95.507076,2.65822844 96.0441487,1.0915055 C96.1813088,0.68959739 96.5674503,0.403783784 96.9965576,0.403783784 C100.717508,0.403783784 104.440661,0.403783784 108.161611,0.403783784 C111.964086,0.403783784 114.820211,3.54165231 114.46712,7.339601 C114.230808,9.90528948 112.589293,12.0972642 110.366088,13.1692035 C110.907567,15.1870365 111.447945,17.206528 111.989975,19.247027 C109.457746,19.2464742 106.925517,19.2464742 104.392737,19.2464742 Z" id="Path" fill="#231F20"></path>
                    <path d="M57.6978729,5.78756757 C58.1783588,4.39287648 58.6605054,2.99708068 59.1404378,1.60128489 C59.3458068,1.00861022 58.9455863,0.403783784 58.3095514,0.403783784 C56.4202674,0.403783784 54.531537,0.403783784 52.642253,0.403783784 C52.2138013,0.403783784 51.8252055,0.689350237 51.6862631,1.0909108 C51.1465468,2.65627894 50.6068304,4.22219943 50.0671141,5.78756757 C52.6112539,5.78756757 55.1542866,5.78756757 57.6978729,5.78756757 Z" id="Path" fill="#231F20"></path>
                    <path d="M62.4588167,19.247027 C57.4055609,19.247027 52.3534095,19.247027 47.3007059,19.247027 C46.3880057,19.247027 45.824815,18.3780227 46.1185576,17.5217571 C47.1527303,14.5082117 48.1852465,11.4935587 49.218867,8.47945946 C51.7554335,8.47945946 54.2931044,8.47945946 56.830223,8.47945946 C56.4757442,9.51240599 56.1223697,10.5447987 55.7678909,11.5766375 C55.4747004,12.4334569 56.0505905,13.3030151 56.9621863,13.3030151 C59.1144581,13.3030151 61.267282,13.3030151 63.4201059,13.3030151 C64.3322539,13.3030151 64.9147697,14.1703579 64.6215793,15.0249619 C64.2179593,16.2019117 63.8137872,17.3799692 63.4112715,18.5574729 C63.271026,18.9601282 62.8850747,19.247027 62.4588167,19.247027 Z" id="Path" fill="#231F20"></path>
                    <path d="M79.8900473,0.764470232 C78.4954827,2.43920425 77.1003663,4.11393826 75.704698,5.78756757 C79.4617996,5.78756757 83.2205567,5.78756757 86.9798658,5.78756757 C86.83914,4.25644531 86.6978624,2.72421835 86.5571367,1.19199138 C86.5140911,0.729119646 86.1360631,0.403783784 85.6735997,0.403783784 C84.0025504,0.403783784 82.3309493,0.403783784 80.6593481,0.403783784 C80.3613406,0.403783784 80.080441,0.536900834 79.8900473,0.764470232 Z" id="Path" fill="#231F20"></path>
                    <path d="M81.4785773,19.247027 C83.3802654,19.247027 85.2808489,19.247027 87.182537,19.247027 C87.755308,19.247027 88.2369438,18.7241844 88.1839197,18.1476174 C87.8884207,14.9252674 87.5940263,11.7018095 87.297975,8.47945946 C82.7008938,8.47945946 78.106022,8.47945946 73.5100455,8.47945946 C71.1322449,11.3390321 68.7544443,14.1980508 66.3760914,17.0581773 C65.652533,17.9266278 66.1584715,19.247027 67.3172696,19.247027 C68.8290095,19.247027 70.3396447,19.247027 71.8497276,19.247027 C72.149093,19.247027 72.4324406,19.098039 72.6213391,18.8704031 C73.8701677,17.3705537 75.116787,15.8701504 76.3645109,14.3703009 C76.6379165,14.0402011 77.0466442,13.860197 77.4752558,13.860197 C77.9861654,13.860197 78.4954179,13.860197 79.0057751,13.860197 C79.6702337,13.860197 80.2159403,14.3215613 80.2772494,14.989515 C80.3827453,16.1398796 80.4887936,17.2902441 80.5931848,18.439501 C80.6368193,18.9041885 81.0157208,19.247027 81.4785773,19.247027 Z" id="Path" fill="#231F20"></path>
                </g>
            </g>
        </g>
    </g>
</svg>