<svg width="140" height="35" viewBox="0 0 140 35" fill="none" xmlns="http://www.w3.org/2000/svg">
<g clip-path="url(#clip0_246_302)">
<mask id="mask0_246_302" style="mask-type:luminance" maskUnits="userSpaceOnUse" x="0" y="0" width="140" height="35">
<path d="M140 0H0V35H140V0Z" fill="white"/>
</mask>
<g mask="url(#mask0_246_302)">
<mask id="mask1_246_302" style="mask-type:luminance" maskUnits="userSpaceOnUse" x="0" y="0" width="140" height="35">
<path d="M140 0H0V35H140V0Z" fill="white"/>
</mask>
<g mask="url(#mask1_246_302)">
<path d="M38.9422 16.7571C40.4695 13.7046 43.6163 11.6085 47.2532 11.609C52.3867 11.6099 56.5454 15.7831 56.544 20.9287C56.5435 23.3329 55.6342 25.5258 54.1415 27.1778C55.3795 28.0656 56.6972 29.0143 57.9121 29.9098C59.9367 27.4748 61.1577 24.3451 61.1577 20.9301C61.159 11.8263 54.8492 3.109 42.4289 1.23098C29.8893 -0.666566 19.6878 -0.618984 0.962891 3.14503C8.23155 3.61013 13.4209 4.69437 19.3269 6.59191C24.835 8.35854 29.5928 10.6356 36.9651 15.4707L38.9422 16.7571Z" fill="black"/>
<path d="M33.2121 18.7519C33.4703 18.9186 33.732 19.0863 33.996 19.2549L35.1966 20.0197C36.1374 20.6191 37.0882 21.2284 38.0045 21.8445C38.4644 26.5594 42.4267 30.2442 47.2488 30.2447C48.047 30.2447 48.8218 30.1438 49.5603 29.9548C50.2787 30.4802 51.0089 31.0269 51.7393 31.5773L53.0519 32.568C53.3425 32.7874 53.632 33.0056 53.9198 33.2216C51.8988 34.3446 49.5732 34.9846 47.0967 34.9843C39.3344 34.9824 33.0418 28.6874 33.0435 20.9242C33.0435 20.1849 33.1004 19.4599 33.2121 18.7519ZM73.0023 13.6632V24.4486C73.0023 25.2611 73.082 26.0329 73.2399 26.7662C73.3994 27.4986 73.6563 28.1521 74.0125 28.727C74.3692 29.3018 74.8302 29.7567 75.3949 30.0931C75.9593 30.4312 76.6573 30.5987 77.4894 30.5987C78.3206 30.5987 79.023 30.4251 79.5984 30.0791C80.1727 29.7323 80.6378 29.2718 80.9951 28.697C81.3518 28.1216 81.6038 27.4645 81.752 26.7213C81.9008 25.9782 81.9743 25.2207 81.9743 24.4486V13.6632H86.8478V24.4486C86.8478 25.9143 86.6641 27.2813 86.2975 28.5487C85.9314 29.8159 85.3664 30.9251 84.6056 31.8757C83.8418 32.8271 82.8712 33.5747 81.694 34.119C80.5143 34.6647 79.1121 34.9362 77.4894 34.9362C75.8053 34.9362 74.3692 34.6493 73.181 34.075C71.9934 33.5007 71.0269 32.7341 70.2842 31.7726C69.5413 30.8113 68.9965 29.6982 68.6499 28.4299C68.3028 27.1625 68.1301 25.8354 68.1301 24.4486V13.6632H73.0023ZM19.1775 13.6631C20.1674 13.6631 21.0833 13.8713 21.9252 14.2877C22.7668 14.7036 23.4951 15.2476 24.109 15.9218C24.7229 16.5954 25.2043 17.3572 25.5503 18.2093C25.8966 19.0612 26.0698 19.9218 26.0698 20.7942C26.0698 21.4469 25.9912 22.0765 25.8317 22.6808C25.6732 23.2848 25.4469 23.8541 25.1493 24.3891C24.8517 24.9238 24.4911 25.4045 24.065 25.8306C23.6393 26.2558 23.1582 26.617 22.6243 26.9146L27.2583 34.7578H21.7623L17.7219 27.9534H14.5424V34.7578H9.66992V13.6631H19.1775ZM98.9615 13.6632L103.924 28.6373L108.826 13.6632H113.965L105.973 34.7576H101.873L93.7923 13.6632H98.9615ZM124.471 13.6632L129.017 23.3498L133.622 13.6632H138.94L131.424 27.5684V34.7576H126.581V27.5082L119.182 13.6632H124.471ZM47.3891 16.0143C50.103 16.0148 52.3017 18.2149 52.3011 20.9283C52.3003 23.6438 50.1007 25.8412 47.3874 25.8406C44.6741 25.8398 42.4745 23.6416 42.4751 20.9261C42.4756 18.213 44.676 16.0137 47.3891 16.0143ZM18.8502 17.9417H14.5424V23.7059H18.9995C19.5732 23.7059 20.0694 23.4338 20.4856 22.8887C20.9006 22.3441 21.1091 21.6458 21.1091 20.7942C21.1091 19.9218 20.8717 19.2295 20.3951 18.7143C19.9206 18.1994 19.4052 17.9417 18.8502 17.9417Z" fill="black"/>
</g>
</g>
</g>
<defs>
<clipPath id="clip0_246_302">
<rect width="140" height="35" fill="white"/>
</clipPath>
</defs>
</svg>
