<?xml version="1.0" encoding="UTF-8"?>
<svg width="140" height="35px" viewBox="0 0 860 218" version="1.1" xmlns="http://www.w3.org/2000/svg" xmlns:xlink="http://www.w3.org/1999/xlink">
    <path d="M236.556534,104.372705 C246.069641,85.3601952 265.669761,72.3042987 288.322709,72.307725 C320.296892,72.3128645 346.199681,98.3064501 346.191116,130.356012 C346.187689,145.330633 340.524024,158.989558 331.226773,169.278721 C338.937649,174.808761 347.145339,180.717406 354.712311,186.295414 C367.322789,171.12892 374.927452,151.635016 374.927452,130.364578 C374.936016,73.6611115 335.634701,19.3646175 258.274104,7.66724695 C180.17,-4.15175703 116.629363,-3.85538253 -2.67798178e-13,19.5890398 C45.2733466,22.4859721 77.5952988,29.2391991 114.381713,41.0582031 C148.689203,52.0617489 178.323227,66.2448964 224.24243,96.3603147 L236.556534,104.372705 Z" id="yellow" fill="#FCCD00"></path>
    <path d="M200.863964,116.797135 C202.472324,117.835303 204.101956,118.879752 205.746387,119.930006 L213.224382,124.693734 C219.084322,128.426837 225.006637,132.222315 230.713845,136.059765 C233.578227,165.426538 258.257829,188.377574 288.292729,188.381 C293.264283,188.381 298.090219,187.752275 302.69002,186.575343 C307.164761,189.847454 311.712739,193.252763 316.262216,196.680771 L324.437398,202.851833 C326.247578,204.21802 328.051112,205.577231 329.843406,206.922394 C317.255199,213.917175 302.770538,217.903669 287.345359,217.901957 C238.996912,217.889964 199.803526,178.681159 199.813801,130.327574 C199.813801,125.722633 200.168426,121.206777 200.863964,116.797135 Z M448.699861,85.1018525 L448.699861,152.279502 C448.699861,157.340139 449.196673,162.147231 450.18002,166.714482 C451.173645,171.276594 452.773725,175.347032 454.992251,178.92751 C457.214203,182.507988 460.085438,185.341534 463.60253,187.436713 C467.117908,189.542171 471.465876,190.585478 476.648147,190.585478 C481.825279,190.585478 486.200657,189.504482 489.784562,187.349343 C493.361614,185.189064 496.258546,182.321255 498.483924,178.740777 C500.705876,175.156872 502.27512,171.064163 503.198506,166.435239 C504.125319,161.806315 504.582729,157.088307 504.582729,152.279502 L504.582729,85.1018525 L534.937988,85.1018525 L534.937988,152.279502 C534.937988,161.408864 533.793606,169.923207 531.50998,177.81739 C529.229781,185.70986 525.710976,192.618984 520.97241,198.539621 C516.215,204.465398 510.169303,209.121733 502.837032,212.512052 C495.489343,215.910936 486.755717,217.601813 476.648147,217.601813 C466.158546,217.601813 457.214203,215.815 449.813406,212.237948 C442.416036,208.660896 436.396036,203.886355 431.770538,197.897191 C427.143327,191.909741 423.749582,184.976633 421.591016,177.077311 C419.429024,169.183127 418.353167,160.917191 418.353167,152.279502 L418.353167,85.1018525 L448.699861,85.1018525 Z M113.448219,85.100996 C119.613837,85.100996 125.318618,86.3978485 130.562562,88.9915537 C135.804793,91.5818326 140.341207,94.9704382 144.164952,99.1693625 C147.988697,103.36486 150.986705,108.110279 153.141845,113.41761 C155.298697,118.723227 156.37798,124.083665 156.37798,129.517769 C156.37798,133.583068 155.88802,137.504462 154.894394,141.268247 C153.907622,145.030319 152.497701,148.576534 150.644076,151.908606 C148.79045,155.238964 146.544514,158.233546 143.890849,160.887211 C141.238896,163.535737 138.242602,165.7851 134.917382,167.638725 L163.78049,216.490837 L129.548378,216.490837 L104.382243,174.109283 L84.578259,174.109283 L84.578259,216.490837 L54.2298526,216.490837 L54.2298526,85.100996 L113.448219,85.100996 Z M610.389112,85.1015099 L641.296004,178.368681 L671.831143,85.1015099 L703.841303,85.1015099 L654.058952,216.489637 L628.52449,216.489637 L578.192219,85.1015099 L610.389112,85.1015099 Z M769.275139,85.1015099 L797.591753,145.435135 L826.273267,85.1015099 L859.400398,85.1015099 L812.581793,171.71139 L812.581793,216.489637 L782.416693,216.489637 L782.416693,171.336211 L736.334741,85.1015099 L769.275139,85.1015099 Z M289.166263,99.745664 C306.069888,99.7490916 319.764789,113.452558 319.761364,130.352757 C319.756223,147.266661 306.056183,160.952996 289.155984,160.949571 C272.255785,160.94443 258.555745,147.252956 258.55917,130.339052 C258.562598,113.440566 272.267777,99.742239 289.166263,99.745664 Z M111.409574,111.750717 L84.578259,111.750717 L84.578259,147.653147 L112.339813,147.653147 C115.913438,147.653147 119.003956,145.958845 121.595948,142.563386 C124.181088,139.171355 125.479653,134.821673 125.479653,129.517769 C125.479653,124.083665 124.001207,119.771673 121.032323,116.562948 C118.077143,113.355936 114.866705,111.750717 111.409574,111.750717 Z" id="Shape" fill="#1C1C1C"></path>
</svg>
