<?xml version="1.0" encoding="UTF-8"?>
<svg width="120px" height="25px" viewBox="0 0 120 25" version="1.1" xmlns="http://www.w3.org/2000/svg" xmlns:xlink="http://www.w3.org/1999/xlink">
    <!-- Generator: Sketch 54.1 (76490) - https://sketchapp.com -->
    <title>strava</title>
    <desc>Created with Sketch.</desc>
    <g id="Page-1" stroke="none" stroke-width="1" fill="none" fill-rule="evenodd">
        <g id="sync-page" transform="translate(-870.000000, -298.000000)" fill="#FC4C02" fill-rule="nonzero">
            <g id="Partners" transform="translate(402.000000, 139.000000)">
                <g id="strava" transform="translate(468.000000, 159.000000)">
                    <path d="M11.4814815,24.0147059 C9.31689904,24.0301055 7.16297285,23.7126167 5.0962963,23.0735294 C3.2193642,22.4989481 1.4836882,21.5423303 1.42108547e-14,20.2647059 L4,15.5441176 C5.14430462,16.4392192 6.44505966,17.1172189 7.83703704,17.5441176 C9.13326461,17.9391797 10.4810952,18.1423454 11.837037,18.1470588 C12.34394,18.1833648 12.8521777,18.0975997 13.3185185,17.8970588 C13.5866502,17.7688909 13.7587409,17.5012645 13.762963,17.2058824 L13.762963,17.2058824 C13.7262629,16.8351668 13.469463,16.5223207 13.1111111,16.4117647 C12.323619,16.1016413 11.503735,15.8796807 10.6666667,15.75 C9.41234568,15.495098 8.21234568,15.1960784 7.06666667,14.8529412 C6.02617127,14.5522598 5.02998983,14.1171629 4.1037037,13.5588235 C3.24150628,13.0446599 2.51524906,12.3338256 1.98518519,11.4852941 C1.45143577,10.5977445 1.18416342,9.5773325 1.21481481,8.54411765 L1.21481481,8.54411765 C1.20619919,7.53066343 1.418457,6.52734394 1.83703704,5.60294118 C2.25643743,4.68302337 2.87927017,3.86873883 3.65925926,3.22058824 C4.5328069,2.50397454 5.5394591,1.96437935 6.62222222,1.63235294 C7.94164083,1.23070992 9.3164029,1.03717724 10.6962963,1.05882353 C12.6529766,1.00242977 14.6067368,1.24547408 16.4888889,1.77941176 C18.0996144,2.25988295 19.6065854,3.03275961 20.9333333,4.05882353 L17.2888889,9.07352941 C16.2654911,8.3343814 15.1234331,7.77252338 13.9111111,7.41176471 C12.8267193,7.07552709 11.698929,6.89720002 10.562963,6.88235294 C10.1377013,6.85149231 9.71212869,6.93801687 9.33333333,7.13235294 C9.08712536,7.26269834 8.93333333,7.51713368 8.93333333,7.79411765 L8.93333333,7.79411765 C8.97023265,8.14399133 9.20660979,8.44158235 9.54074074,8.55882353 C10.3015845,8.87207296 11.0973157,9.09422678 11.9111111,9.22058824 C13.2321903,9.4457176 14.5382933,9.75019849 15.8222222,10.1323529 C16.8709625,10.4512165 17.8686273,10.9166711 18.7851852,11.5147059 C19.5651787,12.0384798 20.2138805,12.7327189 20.6814815,13.5441176 C21.175368,14.4441844 21.4110799,15.4614832 21.362963,16.4852941 L21.362963,16.4852941 C21.3798218,17.5753589 21.1361221,18.6538645 20.6518519,19.6323529 C20.1837162,20.5634929 19.5041381,21.3739972 18.6666667,22 C17.7341549,22.6745354 16.6845889,23.1730275 15.5703704,23.4705882 C14.2401616,23.8428657 12.8635003,24.0260611 11.4814815,24.0147059 Z" id="Path"></path>
                    <polygon id="Path" points="27.5407407 7.66176471 20.9333333 7.66176471 20.9333333 1.39705882 41.6740741 1.39705882 41.6740741 7.66176471 35.0222222 7.66176471 35.0222222 23.6029412 27.5407407 23.6029412"></polygon>
                    <path d="M42.6666667,1.39705882 L53.5259259,1.39705882 C55.1968931,1.34740735 56.8644296,1.57606397 58.4592593,2.07352941 C59.6225624,2.45306412 60.6855694,3.08617856 61.5703704,3.92647059 C62.2138536,4.57944368 62.7177664,5.3547655 63.0518519,6.20588235 C63.4077476,7.14565396 63.583605,8.14316438 63.5703704,9.14705882 L63.5703704,9.14705882 C63.6173528,10.6086843 63.2029753,12.0483415 62.3851852,13.2647059 C61.5613076,14.4167227 60.447813,15.3344318 59.1555556,15.9264706 L64.3703704,23.4852941 L55.9555556,23.4852941 L51.7333333,17.1323529 L50.1481481,17.1323529 L50.1481481,23.4852941 L42.6666667,23.4852941 L42.6666667,1.39705882 Z M53.3777778,11.9705882 C54.1231498,12.0112586 54.8615982,11.8099366 55.4814815,11.3970588 C55.9875569,11.0270883 56.2760824,10.4322492 56.2518519,9.80882353 L56.2518519,9.80882353 C56.2951794,9.1775359 56.0030381,8.56966549 55.4814815,8.20588235 C54.8598634,7.82550919 54.1367652,7.64093685 53.4074074,7.67647059 L50.1481481,7.67647059 L50.1481481,12.0882353 L53.3777778,12.0882353 L53.3777778,11.9705882 Z" id="Shape"></path>
                    <polygon id="Path" points="107.762963 14.0441176 112.651852 23.6029412 119.822222 23.6029412 107.762963 -2.48689958e-14 95.7185185 23.6029412 102.888889 23.6029412"></polygon>
                    <polygon id="Path" points="74.237037 14.0441176 79.1111111 23.6029412 86.2814815 23.6029412 74.237037 -2.48689958e-14 62.1925926 23.6029412 69.362963 23.6029412"></polygon>
                    <polygon id="Path" points="91.0074074 10.9411765 86.1333333 1.39705882 78.962963 1.39705882 91.0074074 25 103.051852 1.39705882 95.8814815 1.39705882"></polygon>
                </g>
            </g>
        </g>
    </g>
</svg>