<svg width="120" height="25" viewBox="0 0 120 25" fill="none" xmlns="http://www.w3.org/2000/svg">
<path d="M11.4815 24.0146C9.3169 24.03 7.16297 23.7125 5.0963 23.0735C3.21936 22.4989 1.48369 21.5423 0 20.2646L4 15.544C5.1443 16.4391 6.44506 17.1171 7.83704 17.544C9.13326 17.9391 10.4811 18.1423 11.837 18.147C12.3439 18.1833 12.8522 18.0975 13.3185 17.897C13.5867 17.7688 13.7587 17.5012 13.763 17.2058C13.7263 16.8351 13.4695 16.5223 13.1111 16.4117C12.3236 16.1016 11.5037 15.8796 10.6667 15.7499C9.41235 15.495 8.21235 15.196 7.06667 14.8529C6.02617 14.5522 5.02999 14.1171 4.1037 13.5588C3.24151 13.0446 2.51525 12.3338 1.98519 11.4852C1.45144 10.5977 1.18416 9.57726 1.21481 8.54405C1.2062 7.53059 1.41846 6.52727 1.83704 5.60287C2.25644 4.68295 2.87927 3.86867 3.65926 3.22052C4.53281 2.5039 5.53946 1.96431 6.62222 1.63228C7.94164 1.23064 9.3164 1.03711 10.6963 1.05875C12.653 1.00236 14.6067 1.2454 16.4889 1.77934C18.0996 2.25981 19.6066 3.03269 20.9333 4.05875L17.2889 9.07346C16.2655 8.33431 15.1234 7.77245 13.9111 7.4117C12.8267 7.07546 11.6989 6.89713 10.563 6.88228C10.1377 6.85142 9.71213 6.93795 9.33333 7.13228C9.08713 7.26263 8.93333 7.51706 8.93333 7.79405C8.97023 8.14392 9.20661 8.44151 9.54074 8.55875C10.3016 8.872 11.0973 9.09416 11.9111 9.22052C13.2322 9.44565 14.5383 9.75013 15.8222 10.1323C16.871 10.4511 17.8686 10.9166 18.7852 11.5146C19.5652 12.0384 20.2139 12.7326 20.6815 13.544C21.1754 14.4441 21.4111 15.4614 21.363 16.4852C21.3798 17.5753 21.1361 18.6538 20.6519 19.6323C20.1837 20.5634 19.5041 21.3739 18.6667 21.9999C17.7342 22.6745 16.6846 23.173 15.5704 23.4705C14.2402 23.8428 12.8635 24.026 11.4815 24.0146Z" fill="white"/>
<path d="M27.541 7.66168H20.9336V1.39697H41.6743V7.66168H35.0225V23.6029H27.541V7.66168Z" fill="white"/>
<path d="M42.667 1.39703H53.5262C55.1972 1.34738 56.8648 1.57604 58.4596 2.0735C59.6229 2.45304 60.6859 3.08615 61.5707 3.92644C62.2142 4.57942 62.7181 5.35474 63.0522 6.20585C63.4081 7.14563 63.5839 8.14314 63.5707 9.14703C63.6177 10.6087 63.2033 12.0483 62.3855 13.2647C61.5616 14.4167 60.4481 15.3344 59.1559 15.9264L64.3707 23.4853H55.9559L51.7337 17.1323H50.1485V23.4853H42.667V1.39703ZM53.3781 11.9706C54.1235 12.0112 54.8619 11.8099 55.4818 11.397C55.9879 11.0271 56.2764 10.4322 56.2522 9.8088C56.2955 9.17751 56.0034 8.56964 55.4818 8.20585C54.8602 7.82548 54.1371 7.64091 53.4077 7.67644H50.1485V12.0882H53.3781V11.9706Z" fill="white"/>
<path d="M107.763 14.0441L112.652 23.6029H119.822L107.763 0L95.7188 23.6029H102.889L107.763 14.0441Z" fill="white"/>
<path d="M74.2368 14.0441L79.1109 23.6029H86.2813L74.2368 0L62.1924 23.6029H69.3628L74.2368 14.0441Z" fill="white"/>
<path d="M91.0073 10.9411L86.1333 1.39697H78.9629L91.0073 24.9999L103.052 1.39697H95.8814L91.0073 10.9411Z" fill="white"/>
</svg>
