<svg width="140" height="35" viewBox="0 0 140 35" fill="none" xmlns="http://www.w3.org/2000/svg">
<path d="M21.9984 2.61449C19.0812 0.595041 15.0067 -0.310885 10.6931 0.0948922C6.39866 0.500667 2.63024 2.53895 0.545177 5.56811L0 6.36079V14.7783L0.468662 15.4294C1.76944 17.2601 4.10318 18.6662 7.68987 19.7986C7.73027 19.8113 7.77084 19.8239 7.81173 19.8365L7.89396 19.8616C8.8728 20.1588 10.0748 20.4534 13.2469 21.1763C15.0067 21.5821 15.791 21.9784 16.3553 22.7522L16.6423 23.1392V26.0551L16.3075 26.508C15.2554 27.9235 12.8547 28.4614 10.8557 27.7254C10.2053 27.4894 9.63147 27.0647 9.21063 26.5174L8.895 26.1117V23.2995H0V28.518L0.258242 28.9521C1.88421 31.7264 5.22222 33.8969 9.00977 34.6612C12.0513 35.2746 16.011 35.0387 18.6986 34.0856C19.6168 33.7554 20.9463 33.0948 21.8071 32.5192C22.7444 31.8963 24.4182 30.2449 25.0399 29.3107L25.5373 28.5652V19.8364L25.1547 19.2512C24.3321 18.0056 22.6583 16.675 20.8124 15.8068C18.9186 14.9103 16.9483 14.3064 13.7633 13.6364C10.741 12.9947 9.9471 12.6833 9.23932 11.8718L8.895 11.466V8.88982L9.22019 8.48399C9.66972 7.92722 10.5018 7.38938 11.2957 7.15346C12.1948 6.88923 13.7346 6.927 14.5572 7.24784C15.3128 7.53094 15.9536 7.98384 16.3266 8.46511L16.6423 8.88038V11.4094H25.5373V6.47404L25.279 6.0399C24.6478 4.96412 23.1844 3.43547 21.9984 2.61449Z" fill="url(#paint0_linear_1202_124)"/>
<path d="M51.8451 7.39001V0.681641H27.8462V7.39001H35.2378V34.3181H44.5494V7.39001H51.8451Z" fill="url(#paint1_linear_1202_124)"/>
<path fill-rule="evenodd" clip-rule="evenodd" d="M64.8057 0.681752C70.7823 0.683173 72.0345 0.702547 73.1509 0.968109L73.2388 0.98965C73.473 1.04832 73.7066 1.11813 73.9822 1.20128C74.9107 1.47529 76.3083 2.13669 77.1219 2.6847C78.0026 3.2705 79.4192 4.66892 80.0127 5.53818L80.5392 6.30342V16.7912L79.9936 17.5943C79.2565 18.662 78.0887 19.8148 77.007 20.5139C76.5284 20.8257 76.0498 21.1092 75.9445 21.1375C75.8392 21.1753 75.7531 21.2319 75.7531 21.2792C75.7531 21.3264 76.9209 23.1406 78.3376 25.3137L80.9221 29.2726V34.3181L77.2176 34.2992L73.5132 34.2709L70.0576 28.3939L66.6116 22.517L65.4917 22.5076H64.3622V34.3181H55.0771V0.681641L64.8057 0.681752ZM66.5351 7.39012L64.3622 7.39001V16.0826H66.6882C69.5407 16.0826 70.2012 15.9408 71.0627 15.1755L71.076 15.1635C71.6939 14.606 71.7305 14.573 71.7326 12.2501V11.317C71.7304 8.99404 71.6933 8.96102 71.0667 8.40358L71.0531 8.39154C70.5745 7.95691 69.8566 7.62621 69.1004 7.49394C68.7941 7.43724 67.5976 7.39001 66.4489 7.39001L66.5351 7.39012Z" fill="url(#paint2_linear_1202_124)"/>
<path d="M109.537 5.68929V0.681641H101.905L99.5429 5.95389L97.1715 11.2166L96.7586 11.245L96.3362 11.2639L94.0224 6.00108L91.7085 0.72883L87.465 0.700516L83.231 0.681641V5.68929L87.3593 13.163L91.4877 20.6462V34.3181H100.801V21.5438L105.169 13.6166L109.537 5.68929Z" fill="#FEB546"/>
<path d="M121.445 0.681752C126.511 0.683942 129.452 0.721431 129.917 0.785569C132.519 1.13506 134.814 2.20244 136.571 3.84601C137.464 4.68668 137.944 5.27224 138.596 6.34906L139.076 7.13307V27.7438L138.664 28.4522C137.252 30.8892 135.006 32.6934 132.25 33.5908C130.205 34.252 130.359 34.2425 121.104 34.2898L112.77 34.3181V0.681641L121.445 0.681752ZM124.224 7.38812H122.083V27.5171L124.56 27.4888C127.325 27.4416 127.584 27.3943 128.573 26.7708C128.928 26.5441 129.274 26.223 129.456 25.9491L129.764 25.4957L129.763 16.6948C129.763 16.6318 129.763 16.5693 129.763 16.5074L129.763 16.1417C129.76 10.5699 129.736 9.4038 129.629 9.20176C129.418 8.80503 128.563 8.05883 128.074 7.85102C127.843 7.74712 127.354 7.59592 126.999 7.5298C126.557 7.43534 125.693 7.38812 124.224 7.38812Z" fill="url(#paint3_linear_1202_124)"/>
<defs>
<linearGradient id="paint0_linear_1202_124" x1="1.6162" y1="4.43427" x2="21.9616" y2="35.3056" gradientUnits="userSpaceOnUse">
<stop stop-color="#FF5D21"/>
<stop offset="1" stop-color="#FF7423"/>
</linearGradient>
<linearGradient id="paint1_linear_1202_124" x1="24.0122" y1="2.95601" x2="51.423" y2="38.6075" gradientUnits="userSpaceOnUse">
<stop stop-color="#FF6B23"/>
<stop offset="1" stop-color="#FF8E2C"/>
</linearGradient>
<linearGradient id="paint2_linear_1202_124" x1="57.3008" y1="17.4338" x2="84.8002" y2="27.1302" gradientUnits="userSpaceOnUse">
<stop stop-color="#FF922E"/>
<stop offset="0.360354" stop-color="#FFA133"/>
<stop offset="0.364247" stop-color="#FEB546"/>
<stop offset="1" stop-color="#FEB546"/>
</linearGradient>
<linearGradient id="paint3_linear_1202_124" x1="101.359" y1="7.39028" x2="144.652" y2="23.8698" gradientUnits="userSpaceOnUse">
<stop stop-color="#FBBD53"/>
<stop offset="0.359229" stop-color="#FABE55"/>
<stop offset="0.362335" stop-color="#FBC667"/>
<stop offset="1" stop-color="#FFCA6D"/>
</linearGradient>
</defs>
</svg>
