<svg width="40" height="40" viewBox="0 0 40 40" fill="none" xmlns="http://www.w3.org/2000/svg">
<path d="M5 30H17.5V32.5H5V30ZM5 22.5H17.5V25H5V22.5ZM32.5 17.5H7.5C6.83696 17.5 6.20107 17.2366 5.73223 16.7678C5.26339 16.2989 5 15.663 5 15V7.5C5 6.83696 5.26339 6.20107 5.73223 5.73223C6.20107 5.26339 6.83696 5 7.5 5H32.5C33.163 5 33.7989 5.26339 34.2678 5.73223C34.7366 6.20107 35 6.83696 35 7.5V15C35 15.663 34.7366 16.2989 34.2678 16.7678C33.7989 17.2366 33.163 17.5 32.5 17.5ZM7.5 7.5V15H32.5V7.5H7.5ZM32.5 35H25C24.337 35 23.7011 34.7366 23.2322 34.2678C22.7634 33.7989 22.5 33.163 22.5 32.5V25C22.5 24.337 22.7634 23.7011 23.2322 23.2322C23.7011 22.7634 24.337 22.5 25 22.5H32.5C33.163 22.5 33.7989 22.7634 34.2678 23.2322C34.7366 23.7011 35 24.337 35 25V32.5C35 33.163 34.7366 33.7989 34.2678 34.2678C33.7989 34.7366 33.163 35 32.5 35ZM25 25V32.5H32.5V25H25Z" fill="#333333"/>
</svg>
