<svg xmlns="http://www.w3.org/2000/svg" id="Line" width="207.754" height="38.694" viewBox="0 0 207.754 38.694">
  <g id="Line-2" data-name="Line" transform="translate(0 0)">
    <path id="Path_899" data-name="Path 899" d="M811.7,2870.805c30.117,18.9,66.949,26.126,101.581,26.555a232.4,232.4,0,0,0,103.014-22.745c2.722-1.3.563-5.686-2.154-4.385a228.889,228.889,0,0,1-102.084,22.579c-34.908-.479-67.4-10.284-99.961-22.891-.491-.189-.851.6-.4.887Z" transform="translate(-811.493 -2869.002)" fill="#ee1f4f"/>
    <path id="Path_900" data-name="Path 900" d="M816.019,2880.893c41.275,24.062,92.214,29.315,137.877,19.524,1.788-.383,1.163-3.318-.628-2.953-47.236,9.636-92.729,1.841-136.887-17.382-.441-.192-.784.566-.362.811Z" transform="translate(-810.375 -2866.38)" fill="#ee1f4f"/>
    <path id="Path_901" data-name="Path 901" d="M961.218,2895.592c.916-9.742,9.233-19.52,17.938-21.909,2.631-.721,1.707-5.153-.941-4.417a24.823,24.823,0,0,0-13.544,9.291c-3.82,5.238-4.239,10.629-3.743,17.02.016.195.272.218.291.014Z" transform="translate(-772.972 -2869.184)" fill="#ee1f4f"/>
  </g>
  <path id="Color_Overlay" data-name="Color Overlay" d="M5.644,14.513c-.422-.244-.08-1,.361-.811C50.163,32.925,95.657,40.719,142.892,31.084c1.791-.365,2.416,2.569.628,2.953a210.328,210.328,0,0,1-43.991,4.657C66.9,38.694,33.992,31.04,5.644,14.513ZM101.79,28.359C67.158,27.93,30.326,20.705.209,1.8-.246,1.516.114.727.6.916,33.17,13.523,65.657,23.328,100.565,23.807A228.709,228.709,0,0,0,197.847,3.462a25.658,25.658,0,0,1,7.4-3.38c2.647-.737,3.572,3.7.941,4.417-.109.029-.216.06-.325.093a2.141,2.141,0,0,1-1.055,1.02q-3.062,1.46-6.155,2.827c-5.491,4.308-9.762,11.146-10.4,17.968-.018.2-.275.181-.291-.014-.412-5.313-.191-9.933,2.088-14.351a231.924,231.924,0,0,1-85.394,16.333C103.7,28.377,102.743,28.37,101.79,28.359Z" transform="translate(0)" fill="#ee1f4f"/>
</svg>