<svg width="100" height="100" viewBox="0 0 100 100" fill="none" xmlns="http://www.w3.org/2000/svg">
<g clip-path="url(#clip0_18_9)">
<path d="M2.08337 75V95.8333M10.4167 70.8333V100M72.9167 75V95.8333M64.5834 70.8333V100M10.4167 85.4167H64.5834M56.25 85.4167L52.0834 68.75C52.0834 68.75 45.8334 64.5833 37.5 64.5833C29.1667 64.5833 22.9167 68.75 22.9167 68.75L18.75 85.4167M97.9167 37.5V58.3333M89.5834 33.3333V62.5M54.1667 47.9167H89.5834M81.25 47.9167L77.0834 31.25C77.0834 31.25 70.8334 27.0833 62.5 27.0833C54.1667 27.0833 47.9167 31.25 47.9167 31.25L46.875 35.4167M36.875 56.25C36.875 56.25 30.2084 52.0833 30.2084 46.875C30.2084 44.9434 30.9757 43.0908 32.3416 41.7249C33.7075 40.359 35.5601 39.5917 37.4917 39.5917C39.4234 39.5917 41.2759 40.359 42.6418 41.7249C44.0077 43.0908 44.775 44.9434 44.775 46.875C44.775 52.0833 38.125 56.25 38.125 56.25H36.875ZM61.875 18.75C61.875 18.75 55.2084 14.5833 55.2084 9.37501C55.2084 7.44335 55.9757 5.5908 57.3416 4.22491C58.7075 2.85902 60.5601 2.09167 62.4917 2.09167C64.4234 2.09167 66.2759 2.85902 67.6418 4.22491C69.0077 5.5908 69.775 7.44335 69.775 9.37501C69.775 14.5833 63.125 18.75 63.125 18.75H61.875Z" stroke="#0E0E0E" stroke-width="3"/>
</g>
<defs>
<clipPath id="clip0_18_9">
<rect width="100" height="100" fill="white"/>
</clipPath>
</defs>
</svg>
