<svg width="17" height="16" viewBox="0 0 17 16" fill="none" xmlns="http://www.w3.org/2000/svg">
<path d="M1.71289 6.09375C1.71289 5.40104 1.82487 4.77083 2.04883 4.20312C2.27279 3.63021 2.58008 3.13542 2.9707 2.71875C3.36654 2.30208 3.82748 1.98177 4.35352 1.75781C4.87956 1.53385 5.44727 1.42188 6.05664 1.42188C6.76498 1.42188 7.38998 1.57292 7.93164 1.875C8.47331 2.17188 8.9082 2.55729 9.23633 3.03125C9.56446 2.55208 9.99675 2.16406 10.5332 1.86719C11.0749 1.57031 11.7025 1.42188 12.416 1.42188C13.0254 1.42188 13.5905 1.53385 14.1113 1.75781C14.6374 1.98177 15.0983 2.30208 15.4942 2.71875C15.8952 3.13542 16.2051 3.63021 16.4239 4.20312C16.6478 4.77083 16.7598 5.40104 16.7598 6.09375C16.7598 7.14583 16.4811 8.1901 15.9239 9.22656C15.3666 10.2578 14.5801 11.263 13.5645 12.2422C12.5541 13.2214 11.3613 14.1536 9.98633 15.0391C9.86133 15.1224 9.72852 15.1953 9.58789 15.2578C9.45248 15.3255 9.33529 15.3594 9.23633 15.3594C9.13216 15.3594 9.00977 15.3255 8.86914 15.2578C8.73373 15.1953 8.60612 15.1224 8.48633 15.0391C7.11133 14.1536 5.91602 13.2214 4.90039 12.2422C3.88998 11.263 3.10612 10.2578 2.54883 9.22656C1.99154 8.1901 1.71289 7.14583 1.71289 6.09375ZM3.33789 6.07812C3.33789 6.71875 3.48893 7.3724 3.79102 8.03906C4.0931 8.70052 4.51237 9.35677 5.04883 10.0078C5.58529 10.6589 6.19987 11.2865 6.89258 11.8906C7.58529 12.4896 8.32227 13.0495 9.10352 13.5703C9.17123 13.6172 9.2155 13.6406 9.23633 13.6406C9.25196 13.6406 9.29623 13.6172 9.36914 13.5703C10.1504 13.0495 10.8874 12.4896 11.5801 11.8906C12.278 11.2865 12.8926 10.6589 13.4239 10.0078C13.9551 9.35677 14.3718 8.70052 14.6739 8.03906C14.9811 7.3724 15.1348 6.71875 15.1348 6.07812C15.1348 5.46875 15.0098 4.9349 14.7598 4.47656C14.515 4.01302 14.1765 3.65365 13.7442 3.39844C13.3171 3.13802 12.8327 3.00781 12.291 3.00781C11.8587 3.00781 11.4837 3.08333 11.166 3.23438C10.8535 3.38542 10.5853 3.57552 10.3613 3.80469C10.1426 4.02865 9.95248 4.25521 9.79102 4.48438C9.67643 4.63021 9.58008 4.73438 9.50196 4.79688C9.42904 4.85938 9.3405 4.89062 9.23633 4.89062C9.13737 4.89062 9.04623 4.86198 8.96289 4.80469C8.87956 4.74219 8.78581 4.63542 8.68164 4.48438C8.52539 4.25521 8.33529 4.02865 8.11133 3.80469C7.89258 3.57552 7.62435 3.38542 7.30664 3.23438C6.98893 3.08333 6.61133 3.00781 6.17383 3.00781C5.63216 3.00781 5.14779 3.13802 4.7207 3.39844C4.29362 3.65365 3.95508 4.01302 3.70508 4.47656C3.46029 4.9349 3.33789 5.46875 3.33789 6.07812Z" fill="#0E0E0E"/>
</svg>
