<svg xmlns="http://www.w3.org/2000/svg" viewBox="0 0 48 48"><g fill="none" class="nc-icon-wrapper"><path d="M7.99971 45.6264V47.2C7.99971 47.6416 8.35732 48 8.79972 48H21.6C22.0424 48 22.4 47.6416 22.4 47.2V41.5999H25.6V47.2C25.6 47.6416 25.9576 48 26.4 48H39.2003C39.6427 48 40.0003 47.6416 40.0003 47.2V45.6264C40.0003 39.4471 41.8651 33.1157 45.394 27.3181C47.2244 24.31 48.1212 20.8467 47.9868 17.3011C47.6404 8.15133 40.2139 0.564801 31.0809 0.0311919C28.6289 -0.110411 26.2352 0.232795 24.0032 1.02001C21.7728 0.231995 19.3783 -0.110411 16.9199 0.0311919C7.78611 0.564801 0.359571 8.15133 0.013165 17.3019C-0.121237 20.8467 0.775579 24.31 2.60601 27.3181C6.13488 33.1166 7.99971 39.4471 7.99971 45.6264ZM21.6 39.9999H15.9999V30.3997C15.9999 29.9581 15.6422 29.5997 15.1998 29.5997H9.88774L12.3878 21.5996H23.6688L21.8344 23.434L22.9656 24.5652L26.1656 21.3652C26.4784 21.0523 26.4784 20.5467 26.1656 20.2339L22.9656 17.0339L21.8344 18.1651L23.6688 19.9995H12.8878L13.4998 18.0411C13.5734 17.9227 13.6158 17.7851 13.6182 17.6395C13.6742 15.0634 14.3318 12.6082 15.4894 10.3994H19.9999V8.79934H16.4455C17.1463 7.77052 17.9567 6.80491 18.8975 5.93689C20.4111 4.54007 22.1432 3.47925 24.0008 2.74804C25.8584 3.47925 27.5889 4.54007 29.1025 5.93689C30.0433 6.80491 30.8529 7.77052 31.5545 8.79934H24.332L26.1664 6.96491L25.0352 5.83369L21.8352 9.03374C21.5224 9.34655 21.5224 9.85216 21.8352 10.165L25.0352 13.365L26.1664 12.2338L24.3312 10.3994H32.5106C33.6682 12.6082 34.3258 15.0634 34.3818 17.6395C34.385 17.7851 34.4274 17.9227 34.5002 18.0411L35.1122 19.9995H28.8001V21.5996H35.6122L38.1123 29.5997H32.8002C32.3577 29.5997 32.0001 29.9581 32.0001 30.3997V39.9999H26.4H21.6ZM11.1998 19.9995C8.55252 19.9995 6.39968 17.8467 6.39968 15.1994C6.39968 12.5522 8.55252 10.3994 11.1998 10.3994H13.687C12.6782 12.5666 12.1054 14.933 12.0238 17.3987L11.2118 19.9995H11.1998ZM36.7882 19.9995L35.9754 17.3987C35.8938 14.933 35.321 12.5666 34.3122 10.3994H36.8002C39.4475 10.3994 41.6003 12.5522 41.6003 15.1994C41.6003 17.8467 39.4475 19.9995 36.8002 19.9995H36.7882ZM30.9865 1.62882C39.3067 2.11523 46.0716 9.02654 46.3884 17.3627C46.51 20.5931 45.694 23.7476 44.0268 26.4868C40.3459 32.5349 38.4003 39.1535 38.4003 45.6264V46.4H27.2001V41.5999H32.8002C33.2426 41.5999 33.6002 41.2415 33.6002 40.7999V31.1997H39.2003C39.4547 31.1997 39.6939 31.0789 39.8451 30.8733C39.9963 30.6677 40.0403 30.4037 39.9635 30.1605L37.281 21.5756C40.5851 21.3276 43.2003 18.5659 43.2003 15.1994C43.2003 11.6706 40.3291 8.79934 36.8002 8.79934H33.4634C32.5834 7.32411 31.4897 5.96249 30.1873 4.76087C29.0001 3.66565 27.6961 2.75284 26.3064 2.02643C27.8185 1.67922 29.3889 1.53522 30.9865 1.62882ZM1.61159 17.3627C1.9276 9.02574 8.69252 2.11523 17.0135 1.62882C18.6135 1.53602 20.1847 1.68002 21.696 2.02723C20.3047 2.75444 18.9991 3.66645 17.8127 4.76167C16.5103 5.96329 15.4166 7.32491 14.5366 8.80014H11.1998C7.6709 8.80014 4.79965 11.6714 4.79965 15.2002C4.79965 18.5667 7.4149 21.3284 10.719 21.5764L8.03651 30.1621C7.95971 30.4053 8.00451 30.6693 8.15491 30.8749C8.30532 31.0805 8.54532 31.1997 8.79972 31.1997H14.3998V40.7999C14.3998 41.2415 14.7574 41.5999 15.1998 41.5999H20.7999V46.4H9.59974V45.6264C9.59974 39.1535 7.6541 32.5349 3.97324 26.486C2.30601 23.7476 1.48919 20.5923 1.61159 17.3627Z" fill="currentColor"></path><path d="M24.7992 28H23.1992V29.6H24.7992V28Z" fill="currentColor"></path><path d="M24.7992 31.1992H23.1992V32.7992H24.7992V31.1992Z" fill="currentColor"></path><path d="M28.0004 31.1992H26.4004V32.7992H28.0004V31.1992Z" fill="currentColor"></path><path d="M21.6 31.1992H20V32.7992H21.6V31.1992Z" fill="currentColor"></path></g></svg>