<svg xmlns="http://www.w3.org/2000/svg" viewBox="0 0 48 48"><g fill="none" class="nc-icon-wrapper"><path d="M26.2674 42.1912C28.3404 42.5397 30.4632 42.4545 32.5016 41.9409C34.5401 41.4274 36.4498 40.4967 38.1101 39.2077C39.7705 37.9187 41.1453 36.2993 42.1478 34.452C43.1503 32.6047 43.7587 30.5695 43.9344 28.4752C44.1102 26.3808 43.8495 24.2728 43.1689 22.2843C42.4882 20.2958 41.4025 18.4701 39.9802 16.9225C38.5578 15.3749 36.8299 14.1391 34.9056 13.2931C32.9812 12.4472 30.9023 12.0095 28.8002 12.0078C26.3001 12.0062 23.8383 12.6218 21.6333 13.7998C19.4283 14.9779 17.5483 16.682 16.1602 18.7608L17.4898 19.6518C18.8493 17.6212 20.7313 15.9945 22.9376 14.9431C25.1439 13.8918 27.593 13.4546 30.0269 13.6776C32.4608 13.9006 34.7895 14.7756 36.768 16.2104C38.7464 17.6452 40.3013 19.5867 41.269 21.8307C42.2367 24.0746 42.5814 26.5378 42.2668 28.9611C41.9522 31.3844 40.9899 33.6781 39.4813 35.6006C37.9726 37.5232 35.9735 39.0035 33.6942 39.8858C31.415 40.768 28.94 41.0196 26.5298 40.6139L26.2674 42.1912Z" fill="currentColor"></path><path d="M26.4004 27.2027C26.4004 27.839 26.6533 28.4494 27.1034 28.8994C27.5534 29.3494 28.1639 29.6022 28.8004 29.6022C29.4369 29.6022 30.0474 29.3494 30.4975 28.8994C30.9476 28.4494 31.2004 27.839 31.2004 27.2027C31.1971 27.0889 31.1856 26.9756 31.166 26.8635L39.63 21.479L38.7708 20.1289L30.4188 25.443C30.0774 25.1255 29.6506 24.9148 29.191 24.8368C28.7313 24.7587 28.2589 24.8168 27.8318 25.0038C27.4047 25.1908 27.0417 25.4986 26.7873 25.8893C26.533 26.28 26.3985 26.7365 26.4004 27.2027ZM28.8004 26.4028C28.9586 26.4028 29.1133 26.4497 29.2449 26.5376C29.3764 26.6255 29.479 26.7504 29.5395 26.8966C29.6001 27.0427 29.6159 27.2035 29.585 27.3587C29.5542 27.5138 29.478 27.6564 29.3661 27.7682C29.2542 27.8801 29.1117 27.9563 28.9565 27.9871C28.8013 28.018 28.6404 28.0021 28.4943 27.9416C28.3481 27.8811 28.2231 27.7785 28.1352 27.647C28.0473 27.5155 28.0004 27.3608 28.0004 27.2027C28.0004 26.9905 28.0847 26.7871 28.2347 26.6371C28.3848 26.4871 28.5882 26.4028 28.8004 26.4028Z" fill="currentColor"></path><path d="M46.9651 12.5729C47.1151 12.4229 47.1993 12.2195 47.1993 12.0074C47.1993 11.7953 47.1151 11.5919 46.9651 11.4419L44.5651 9.0424C44.4151 8.89245 44.2116 8.80822 43.9995 8.80822C43.7874 8.80822 43.5839 8.89245 43.4339 9.0424L40.4867 11.989C38.0281 10.0943 35.1451 8.82657 32.0867 8.29535C32.788 7.63612 33.2749 6.7813 33.4841 5.8419C33.6932 4.9025 33.6151 3.92192 33.2598 3.02749C32.9044 2.13307 32.2883 1.36611 31.4914 0.826232C30.6946 0.286351 29.7538 -0.00151861 28.7912 6.02496e-06C27.8286 0.00153066 26.8887 0.292379 26.0935 0.834782C25.2984 1.37719 24.6847 2.14608 24.3322 3.04163C23.9797 3.93718 23.9046 4.91801 24.1168 5.85674C24.329 6.79547 24.8185 7.64874 25.5219 8.30575C22.4661 8.84642 19.5851 10.1138 17.1219 12.001L14.1619 9.0416C14.0119 8.89165 13.8084 8.80742 13.5963 8.80742C13.3842 8.80742 13.1807 8.89165 13.0307 9.0416L10.6307 11.4411C10.4807 11.5911 10.3965 11.7945 10.3965 12.0066C10.3965 12.2187 10.4807 12.4221 10.6307 12.5721L13.5755 15.5163C12.7704 16.5548 12.0755 17.6742 11.5019 18.8564L12.9419 19.5538C13.6235 18.1503 14.4907 16.8447 15.5203 15.6722C15.6683 15.5027 15.8227 15.3371 15.9771 15.1723C16.1667 14.9724 16.3539 14.7724 16.5523 14.5797C16.5819 14.5501 16.6147 14.5237 16.6451 14.4949C19.7988 11.4678 23.9692 9.7269 28.3396 9.61313C32.7099 9.49936 36.9653 11.0209 40.2723 13.8798C40.5278 14.1 40.7771 14.3274 41.0203 14.5621C41.1616 14.6996 41.3014 14.8393 41.4395 14.9812C41.6747 15.2243 41.9022 15.4736 42.1219 15.729C44.3238 18.279 45.7467 21.4077 46.2211 24.7429C46.6956 28.0782 46.2017 31.4795 44.7982 34.5421C43.3947 37.6047 41.1407 40.1998 38.3044 42.0184C35.4682 43.8371 32.169 44.8028 28.7995 44.8007C27.5125 44.8007 26.2292 44.6609 24.9723 44.3839L24.6267 45.946C27.4338 46.5674 30.3446 46.5512 33.1446 45.8985C35.9446 45.2459 38.5624 43.9735 40.8053 42.175C43.0481 40.3766 44.8588 38.0979 46.1039 35.507C47.349 32.916 47.9968 30.0788 47.9995 27.2043C48.0027 22.976 46.6023 18.8663 44.0179 15.5195L46.9651 12.5729ZM15.5483 13.3367C15.4139 13.4647 15.2851 13.5983 15.1547 13.7302C14.9723 13.915 14.7787 14.0886 14.6043 14.2805L12.3307 12.0074L13.5995 10.7389L15.8731 13.012C15.7595 13.1152 15.6587 13.2311 15.5483 13.3367ZM29.5995 7.89463V5.6087H30.3995V4.00903H27.1995V5.6087H27.9995V7.89463C27.2454 7.69996 26.5882 7.23699 26.151 6.5925C25.7139 5.94801 25.5269 5.16625 25.625 4.39375C25.7232 3.62126 26.0997 2.91107 26.6841 2.39631C27.2685 1.88154 28.0207 1.59754 28.7995 1.59754C29.5784 1.59754 30.3305 1.88154 30.9149 2.39631C31.4993 2.91107 31.8759 3.62126 31.974 4.39375C32.0721 5.16625 31.8851 5.94801 31.448 6.5925C31.0109 7.23699 30.3536 7.69996 29.5995 7.89463ZM42.7419 14.0278C42.495 13.7665 42.2406 13.5121 41.9787 13.2647C41.8923 13.1847 41.8139 13.092 41.7259 13.012L43.9995 10.7389L45.2683 12.0074L42.9947 14.2805C42.9147 14.1925 42.8243 14.1142 42.7419 14.0278Z" fill="currentColor"></path><path d="M29.6 15.207H28V18.407H29.6V15.207Z" fill="currentColor"></path><path d="M29.6 36.0039H28V39.2039H29.6V36.0039Z" fill="currentColor"></path><path d="M23.4932 16.4151L22.1074 17.2148L23.7074 19.9861L25.0932 19.1864L23.4932 16.4151Z" fill="currentColor"></path><path d="M33.8936 34.4229L32.5078 35.2227L34.1078 37.9939L35.4936 37.1942L33.8936 34.4229Z" fill="currentColor"></path><path d="M36.8217 30.9113L36.0215 32.2969L38.7929 33.8967L39.593 32.5112L36.8217 30.9113Z" fill="currentColor"></path><path d="M40.7996 26.4062H37.5996V28.0063H40.7996V26.4062Z" fill="currentColor"></path><path d="M34.1082 16.4125L32.5078 19.1836L33.8935 19.9835L35.4938 17.2124L34.1082 16.4125Z" fill="currentColor"></path><path d="M25.1488 41.754C25.1488 41.5419 25.0644 41.3385 24.9144 41.1885L23.4456 39.72C23.8111 39.046 24.1058 38.336 24.3248 37.6012H26.4C26.6122 37.6012 26.8157 37.517 26.9657 37.367C27.1157 37.217 27.2 37.0135 27.2 36.8014V32.0024C27.2 31.7903 27.1157 31.5868 26.9657 31.4368C26.8157 31.2868 26.6122 31.2026 26.4 31.2026H24.3248C24.1055 30.4678 23.8106 29.7577 23.4448 29.0838L24.9136 27.6153C25.0636 27.4653 25.1478 27.2619 25.1478 27.0498C25.1478 26.8377 25.0636 26.6343 24.9136 26.4843L21.52 23.0898C21.37 22.9399 21.1665 22.8556 20.9544 22.8556C20.7423 22.8556 20.5388 22.9399 20.3888 23.0898L18.92 24.5583C18.2456 24.1928 17.5352 23.8982 16.8 23.6793V21.6045C16.8 21.3924 16.7157 21.189 16.5657 21.039C16.4157 20.889 16.2122 20.8047 16 20.8047H11.2C10.9878 20.8047 10.7843 20.889 10.6343 21.039C10.4843 21.189 10.4 21.3924 10.4 21.6045V23.6793C9.66507 23.8985 8.95487 24.1934 8.2808 24.5591L6.812 23.0906C6.66198 22.9407 6.45853 22.8564 6.2464 22.8564C6.03427 22.8564 5.83082 22.9407 5.6808 23.0906L2.2856 26.4835C2.13562 26.6335 2.05137 26.8369 2.05137 27.049C2.05137 27.2611 2.13562 27.4645 2.2856 27.6145L3.7544 29.083C3.3888 29.7572 3.09416 30.4675 2.8752 31.2026H0.8C0.587827 31.2026 0.384344 31.2868 0.234315 31.4368C0.0842854 31.5868 0 31.7903 0 32.0024V36.8014C0 37.0135 0.0842854 37.217 0.234315 37.367C0.384344 37.517 0.587827 37.6012 0.8 37.6012H2.8752C3.09446 38.336 3.38937 39.0461 3.7552 39.72L2.2856 41.1885C2.13562 41.3385 2.05137 41.5419 2.05137 41.754C2.05137 41.9661 2.13562 42.1695 2.2856 42.3195L5.68 45.7132C5.83002 45.8631 6.03347 45.9474 6.2456 45.9474C6.45773 45.9474 6.66118 45.8631 6.8112 45.7132L8.28 44.2455C8.95436 44.611 9.66483 44.9056 10.4 45.1245V47.1993C10.4 47.4114 10.4843 47.6148 10.6343 47.7648C10.7843 47.9148 10.9878 47.9991 11.2 47.9991H16C16.2122 47.9991 16.4157 47.9148 16.5657 47.7648C16.7157 47.6148 16.8 47.4114 16.8 47.1993V45.1245C17.5349 44.9053 18.2451 44.6104 18.9192 44.2447L20.388 45.7124C20.538 45.8623 20.7415 45.9466 20.9536 45.9466C21.1657 45.9466 21.3692 45.8623 21.5192 45.7124L24.9144 42.3203C24.9888 42.2459 25.0478 42.1576 25.088 42.0605C25.1282 41.9633 25.1489 41.8591 25.1488 41.754ZM20.9536 44.0167L19.6168 42.6802C19.4894 42.5527 19.3227 42.472 19.1436 42.4511C18.9646 42.4302 18.7838 42.4703 18.6304 42.565C17.7607 43.1022 16.8105 43.4964 15.816 43.7328C15.6407 43.7742 15.4845 43.8736 15.3727 44.0148C15.2609 44.1561 15.2 44.3309 15.2 44.511V46.3994H12V44.511C12 44.3309 11.9391 44.1561 11.8273 44.0148C11.7155 43.8736 11.5593 43.7742 11.384 43.7328C10.3895 43.4964 9.43928 43.1022 8.5696 42.565C8.41625 42.4703 8.2354 42.4302 8.05636 42.4511C7.87732 42.472 7.7106 42.5527 7.5832 42.6802L6.2464 44.0167L3.9832 41.754L5.32 40.4175C5.44752 40.2901 5.52828 40.1234 5.54919 39.9444C5.5701 39.7654 5.52993 39.5846 5.4352 39.4313C4.89795 38.5618 4.50361 37.6118 4.2672 36.6174C4.22576 36.4422 4.12636 36.286 3.98509 36.1742C3.84382 36.0624 3.66895 36.0016 3.4888 36.0016H1.6V32.8022H3.4888C3.66895 32.8022 3.84382 32.7414 3.98509 32.6296C4.12636 32.5178 4.22576 32.3616 4.2672 32.1864C4.50361 31.192 4.89795 30.242 5.4352 29.3725C5.52993 29.2192 5.5701 29.0384 5.54919 28.8594C5.52828 28.6804 5.44752 28.5137 5.32 28.3863L3.9832 27.0498L6.2464 24.7871L7.5832 26.1236C7.7106 26.2511 7.87732 26.3318 8.05636 26.3527C8.2354 26.3736 8.41625 26.3335 8.5696 26.2388C9.43928 25.7016 10.3895 25.3074 11.384 25.071C11.5593 25.0296 11.7155 24.9302 11.8273 24.789C11.9391 24.6477 12 24.4729 12 24.2928V22.4044H15.2V24.2928C15.2 24.4729 15.2609 24.6477 15.3727 24.789C15.4845 24.9302 15.6407 25.0296 15.816 25.071C16.8105 25.3074 17.7607 25.7016 18.6304 26.2388C18.7838 26.3335 18.9646 26.3736 19.1436 26.3527C19.3227 26.3318 19.4894 26.2511 19.6168 26.1236L20.9536 24.7871L23.2168 27.0498L21.88 28.3863C21.7525 28.5137 21.6717 28.6804 21.6508 28.8594C21.6299 29.0384 21.6701 29.2192 21.7648 29.3725C22.302 30.242 22.6964 31.192 22.9328 32.1864C22.9742 32.3616 23.0736 32.5178 23.2149 32.6296C23.3562 32.7414 23.531 32.8022 23.7112 32.8022H25.6V36.0016H23.7112C23.531 36.0016 23.3562 36.0624 23.2149 36.1742C23.0736 36.286 22.9742 36.4422 22.9328 36.6174C22.6964 37.6118 22.302 38.5618 21.7648 39.4313C21.6701 39.5846 21.6299 39.7654 21.6508 39.9444C21.6717 40.1234 21.7525 40.2901 21.88 40.4175L23.2168 41.754L20.9536 44.0167Z" fill="currentColor"></path><path d="M13.5984 27.2031C12.1744 27.2031 10.7824 27.6253 9.59833 28.4163C8.4143 29.2073 7.49146 30.3315 6.94651 31.6469C6.40156 32.9623 6.25897 34.4096 6.53679 35.806C6.8146 37.2024 7.50033 38.485 8.50727 39.4918C9.51421 40.4985 10.7971 41.1841 12.1938 41.4619C13.5905 41.7396 15.0381 41.5971 16.3538 41.0522C17.6694 40.5074 18.7939 39.5847 19.585 38.4009C20.3762 37.2171 20.7984 35.8254 20.7984 34.4016C20.7963 32.4931 20.0371 30.6634 18.6873 29.3139C17.3375 27.9643 15.5073 27.2052 13.5984 27.2031ZM13.5984 40.0005C12.4909 40.0005 11.4082 39.6721 10.4872 39.0569C9.56633 38.4417 8.84857 37.5673 8.42472 36.5442C8.00086 35.5212 7.88997 34.3954 8.10604 33.3094C8.32212 32.2233 8.85547 31.2257 9.63864 30.4427C10.4218 29.6596 11.4196 29.1264 12.5059 28.9104C13.5922 28.6943 14.7182 28.8052 15.7415 29.229C16.7647 29.6527 17.6393 30.3704 18.2547 31.2911C18.87 32.2118 19.1984 33.2943 19.1984 34.4016C19.1965 35.886 18.6059 37.309 17.5561 38.3585C16.5063 39.4081 15.0831 39.9986 13.5984 40.0005Z" fill="currentColor"></path><path d="M13.6004 31.2031C12.9675 31.2031 12.3488 31.3908 11.8226 31.7423C11.2963 32.0939 10.8862 32.5935 10.644 33.1781C10.4018 33.7627 10.3384 34.406 10.4619 35.0266C10.5854 35.6472 10.8901 36.2173 11.3377 36.6647C11.7852 37.1122 12.3554 37.4169 12.9761 37.5403C13.5968 37.6638 14.2403 37.6004 14.825 37.3583C15.4097 37.1161 15.9095 36.7061 16.2611 36.1799C16.6127 35.6538 16.8004 35.0352 16.8004 34.4025C16.8004 33.5539 16.4633 32.7402 15.8631 32.1402C15.263 31.5402 14.4491 31.2031 13.6004 31.2031ZM13.6004 36.0021C13.2839 36.0021 12.9746 35.9083 12.7115 35.7325C12.4484 35.5568 12.2433 35.3069 12.1222 35.0146C12.0011 34.7223 11.9694 34.4007 12.0311 34.0904C12.0929 33.7801 12.2453 33.495 12.469 33.2713C12.6928 33.0476 12.9779 32.8953 13.2882 32.8335C13.5986 32.7718 13.9203 32.8035 14.2127 32.9246C14.505 33.0456 14.7549 33.2507 14.9307 33.5137C15.1066 33.7768 15.2004 34.0861 15.2004 34.4025C15.2004 34.8267 15.0318 35.2336 14.7318 35.5336C14.4317 35.8336 14.0247 36.0021 13.6004 36.0021Z" fill="currentColor"></path></g></svg>