<svg xmlns="http://www.w3.org/2000/svg" viewBox="0 0 38 48"><g fill="none" class="nc-icon-wrapper"><path d="M37.9284 39.4271C36.4158 35.2135 31.9103 30.9085 27.1406 26.3503C26.5119 25.7503 25.8843 25.1469 25.2595 24.5419L25.2555 24.5441C27.9864 20.4485 29.9175 16.4394 29.9175 12.4241C29.9175 5.80539 24.8152 0 18.9996 0C13.1828 0 8.08106 5.80594 8.08106 12.4241C8.08106 16.4394 10.0121 20.4485 12.7436 24.5441C12.1182 25.1486 11.4884 25.7508 10.8602 26.3509C6.09052 30.9085 1.5856 35.213 0.0718038 39.4271C-0.0398098 39.7385 0.045443 40.0853 0.289423 40.3114L8.34804 47.7756C8.50508 47.9219 8.71148 48 8.92293 48C8.98519 48 9.04857 47.9928 9.11026 47.9789C9.38341 47.9174 9.60775 47.7257 9.70815 47.4676C11.6218 42.5575 15.327 37.684 19.0007 32.958C22.6744 37.6835 26.3795 42.557 28.2932 47.4676C28.3942 47.7257 28.6174 47.9174 28.89 47.9789C28.9522 47.9928 29.0156 48 29.0779 48C29.2893 48 29.4957 47.9213 29.6533 47.7756L37.7114 40.3114C37.9554 40.0853 38.0401 39.7379 37.9284 39.4271ZM18.999 1.66216C22.9139 1.66216 26.4468 4.8441 27.7279 9.0311C25.4872 7.31574 21.9301 6.07854 18.999 6.07854C16.1128 6.07854 12.5136 7.35619 10.255 9.09093C11.5203 4.87458 15.0667 1.66216 18.999 1.66216ZM23.5157 8.61999C23.3273 11.7437 21.5319 14.8642 19.0001 17.9558C16.4829 14.8836 14.6954 11.7825 14.4885 8.67816C15.9406 8.11746 17.5379 7.74126 18.999 7.74126C20.5593 7.7407 22.1242 8.09419 23.5157 8.61999ZM9.76312 12.4241C9.76312 11.531 11.0632 10.3547 12.8743 9.40397C13.2904 12.7859 15.244 16.0587 17.898 19.2506C16.6837 20.6258 15.3466 21.9943 13.9635 23.3545C11.4861 19.5903 9.76312 15.9485 9.76312 12.4241ZM18.197 31.2614C14.5558 35.9399 10.8002 40.7663 8.60716 45.7378L1.85257 39.4814C3.41629 35.7748 7.60544 31.7723 12.0296 27.5454C18.1111 21.7339 24.3795 15.7374 25.1327 9.34746C26.974 10.3243 28.2298 11.5454 28.2371 12.4158C28.2371 12.4186 28.2366 12.4214 28.2366 12.4241C28.2366 18.3603 23.3598 24.6272 18.197 31.2614ZM29.392 45.7378C27.2511 40.8837 23.6195 36.1687 20.0602 31.5933C21.5437 29.6846 22.9919 27.8036 24.3009 25.9436C24.8562 26.4788 25.4137 27.0141 25.9706 27.5454C30.3942 31.7723 34.5828 35.7753 36.1477 39.482L29.392 45.7378Z" fill="currentColor"></path></g></svg>