<svg xmlns="http://www.w3.org/2000/svg" viewBox="0 0 44 48"><g fill="none" class="nc-icon-wrapper"><path d="M6.98611 28.2169C6.90127 30.5674 7.28039 32.9115 8.10181 35.1154C8.92322 37.3193 10.1708 39.3398 11.7734 41.0614C11.8405 41.1334 11.8929 41.2179 11.9274 41.3102C11.9619 41.4024 11.9779 41.5006 11.9745 41.599C11.9711 41.6975 11.9483 41.7943 11.9075 41.8839C11.8666 41.9735 11.8085 42.0542 11.7365 42.1214C11.6645 42.1886 11.5799 42.2409 11.4877 42.2754C11.3954 42.3099 11.2973 42.3259 11.1989 42.3225C11.1004 42.3191 11.0036 42.2963 10.914 42.2555C10.8244 42.2147 10.7437 42.1566 10.6765 42.0846C8.41168 39.6592 6.80927 36.6917 6.02344 33.4677C5.23762 30.2437 5.29484 26.8718 6.18961 23.6763C6.21624 23.5815 6.26129 23.4928 6.32218 23.4154C6.38307 23.338 6.45861 23.2733 6.5445 23.2251C6.63038 23.1768 6.72492 23.146 6.82272 23.1343C6.92053 23.1226 7.01967 23.1303 7.1145 23.157C7.20933 23.1836 7.29798 23.2286 7.3754 23.2895C7.45282 23.3504 7.51749 23.426 7.56571 23.5118C7.61394 23.5977 7.64477 23.6923 7.65646 23.7901C7.66815 23.8879 7.66046 23.987 7.63383 24.0818C7.25755 25.4302 7.04017 26.818 6.98611 28.2169ZM42.4664 29.6146C42.454 34.0677 40.9228 38.024 38.0382 41.0559C37.9011 41.2001 37.8268 41.3927 37.8318 41.5916C37.8367 41.7904 37.9204 41.9792 38.0646 42.1163C38.2087 42.2534 38.4013 42.3277 38.6002 42.3227C38.7991 42.3178 38.9878 42.234 39.1249 42.0899C42.2759 38.7784 43.9499 34.4706 43.9664 29.6318C44.0961 26.1288 43.4374 22.5017 42.0083 18.8506C40.7399 15.61 38.8994 12.4227 36.538 9.37725C36.4147 9.22423 36.2364 9.12568 36.0412 9.1028C35.8461 9.07992 35.6497 9.13453 35.4944 9.2549C35.3391 9.37527 35.2373 9.55178 35.2107 9.74647C35.1842 9.94116 35.2352 10.1385 35.3526 10.296C40.1744 16.5144 42.7009 23.3659 42.4668 29.5882C42.4664 29.5969 42.4664 29.6062 42.4664 29.6146ZM9.84464 21.4973C12.2858 16.7597 11.4507 10.6005 11.2457 9.89053C11.2103 9.76809 11.2067 9.63865 11.2352 9.51442C11.2637 9.3902 11.3234 9.27528 11.4087 9.18053C11.4939 9.08578 11.6019 9.01432 11.7224 8.97289C11.843 8.93146 11.9721 8.92143 12.0975 8.94375C14.298 9.33459 16.1065 10.608 17.4839 12.7337C19.0682 11.2128 19.8871 8.78484 19.1245 3.20644C19.1075 3.08169 19.1222 2.95468 19.1671 2.8371C19.2121 2.71951 19.286 2.61515 19.3819 2.53363C19.4779 2.4521 19.5928 2.39604 19.7161 2.3706C19.8394 2.34517 19.9671 2.35119 20.0875 2.38809C26.24 4.275 30.1852 8.5125 32.1483 15.3432C32.1729 15.4302 32.2257 15.5066 32.2983 15.5604C32.371 15.6142 32.4595 15.6424 32.5499 15.6405C32.6403 15.6386 32.7275 15.6068 32.7978 15.55C32.8682 15.4933 32.9178 15.4148 32.9387 15.3268C33.1943 14.2596 33.2563 12.9758 33.1229 11.5126C33.1081 11.3511 33.1462 11.1891 33.2313 11.051C33.3164 10.9129 33.4439 10.8061 33.5949 10.7466C33.7458 10.6872 33.9119 10.6783 34.0683 10.7212C34.2248 10.7642 34.3631 10.8567 34.4625 10.9849C36.6689 13.8302 38.3839 16.7957 39.56 19.7991C40.8658 23.1335 41.4649 26.4236 41.3407 29.5785C41.3375 33.6472 40.0623 37.1275 37.5502 39.923C35.0994 42.6502 32.0658 44.0548 29.799 44.7698V46.5C29.799 46.6989 29.7199 46.8897 29.5793 47.0303C29.4386 47.171 29.2479 47.25 29.049 47.25C28.85 47.25 28.6593 47.171 28.5186 47.0303C28.378 46.8897 28.299 46.6989 28.299 46.5V40.425C28.299 40.2261 28.378 40.0354 28.5186 39.8948L33.7405 34.6729C33.8986 34.5207 34.0235 34.3374 34.1074 34.1346C34.1913 33.9318 34.2323 33.7139 34.228 33.4944V28.5563C34.2335 28.2131 34.1307 27.8769 33.9342 27.5954C33.7378 27.3139 33.4577 27.1015 33.1336 26.9883L32.5102 26.7607L25.4175 29.4816L25.8799 30.2838C26.0941 30.6617 26.4285 30.9573 26.8298 31.1236C27.2312 31.2898 27.6766 31.3172 28.0953 31.2014L31.7459 30.221C31.938 30.1694 32.1427 30.1962 32.315 30.2956C32.4874 30.3949 32.6132 30.5587 32.6647 30.7508C32.7163 30.9429 32.6895 31.1476 32.5901 31.32C32.4908 31.4923 32.327 31.6181 32.1349 31.6697L29.9175 32.2653L30.2175 33.7581C30.2521 33.9306 30.2251 34.1097 30.141 34.2643C30.0569 34.4188 29.9212 34.5389 29.7575 34.6035L26.8342 35.7566C25.824 36.1563 25.2705 36.4741 25.0501 37.1013L24.662 38.2045C24.6297 38.2979 24.5792 38.3839 24.5135 38.4576C24.4478 38.5314 24.3682 38.5915 24.2792 38.6344C24.1902 38.6773 24.0937 38.7022 23.995 38.7077C23.8964 38.7132 23.7977 38.6991 23.7045 38.6663C23.6113 38.6335 23.5255 38.5827 23.4521 38.5166C23.3786 38.4506 23.3189 38.3707 23.2764 38.2816C23.2339 38.1924 23.2094 38.0957 23.2044 37.9971C23.1993 37.8984 23.2138 37.7997 23.247 37.7067L23.635 36.6038C24.1225 35.2163 25.4227 34.7019 26.283 34.3615L28.6232 33.4382L28.4657 32.6544C27.73 32.8538 26.9489 32.8027 26.2455 32.5091C25.5421 32.2155 24.9563 31.6962 24.5806 31.033L23.9002 29.8528C23.7907 29.8776 23.6788 29.8901 23.5665 29.8903H22.38L22.4163 30.1039C22.481 30.485 22.392 30.8763 22.1687 31.1919C21.9454 31.5075 21.606 31.7217 21.225 31.7875C21.183 31.7948 21.1403 31.7984 21.0976 31.7984H19.1125C18.2528 31.7984 17.8556 31.2818 17.7706 30.7983L17.0364 26.4919C17.0198 26.3948 17.0226 26.2954 17.0444 26.1993C17.0663 26.1033 17.1069 26.0125 17.1638 25.9322C17.2788 25.7699 17.4536 25.6599 17.6497 25.6265C17.8458 25.593 18.0471 25.6389 18.2094 25.7539C18.3717 25.8689 18.4817 26.0437 18.5151 26.2398L19.207 30.2984H20.9279L20.77 29.3722C20.748 29.3042 20.7359 29.2333 20.7341 29.1618L19.7487 23.3835L17.7242 23.7304C17.7102 23.7327 17.6161 23.757 17.4263 24.0918L16.136 26.3479C15.9855 26.5978 15.9084 26.885 15.9135 27.1767V35.1307C15.9095 35.4242 15.9871 35.7131 16.1375 35.9651L17.745 38.7495C17.8108 38.8635 17.8455 38.9929 17.8455 39.1245V46.5C17.8455 46.6989 17.7664 46.8897 17.6258 47.0303C17.4851 47.171 17.2944 47.25 17.0955 47.25C16.8965 47.25 16.7058 47.171 16.5651 47.0303C16.4245 46.8897 16.3455 46.6989 16.3455 46.5V43.2916C13.7365 41.771 11.5913 39.5681 10.1403 36.9198C8.68939 34.2714 7.98762 31.2777 8.11045 28.2605C8.1993 25.9082 8.79061 23.6021 9.84464 21.4973ZM23.5665 28.391C23.5739 28.3902 23.5808 28.387 23.586 28.3818C23.5912 28.3766 23.5945 28.3697 23.5952 28.3624V21.1552C23.5945 21.1478 23.5912 21.1409 23.586 21.1357C23.5808 21.1305 23.5739 21.1272 23.5665 21.1265H21.2704C21.2631 21.1272 21.2562 21.1304 21.2509 21.1357C21.2457 21.1409 21.2425 21.1478 21.2417 21.1552V23.2162L22.1242 28.3913L23.5665 28.391ZM27.4459 27.0972V21.1552C27.4457 21.1481 27.443 21.1413 27.4382 21.136C27.4335 21.1307 27.427 21.1274 27.42 21.1265H25.1212C25.1142 21.1273 25.1077 21.1307 25.1029 21.136C25.0981 21.1413 25.0954 21.1481 25.0952 21.1552V27.9989L27.4459 27.0972ZM31.7538 21.2457C31.7534 21.2143 31.7407 21.1842 31.7185 21.162C31.6962 21.1398 31.6662 21.1271 31.6348 21.1268H29.065C29.0338 21.1279 29.0042 21.1408 28.9821 21.1629C28.96 21.1849 28.9471 21.2145 28.9459 21.2457V26.5206L31.7538 25.4437V21.2457ZM11.1821 22.1767C9.54014 25.4776 9.1587 29.2642 10.1093 32.8263C11.0599 36.3885 13.2772 39.4815 16.3455 41.5255V39.3263L14.838 36.7152C14.5565 36.2349 14.4098 35.6876 14.4135 35.1308V27.1771C14.4077 26.6232 14.5536 26.0783 14.8353 25.6013L16.123 23.3499C16.3574 22.9374 16.7536 22.3711 17.4754 22.2516L19.5363 21.8988C19.6043 21.8876 19.673 21.8813 19.7419 21.88V21.1553C19.7424 20.75 19.9036 20.3614 20.1902 20.0748C20.4767 19.7882 20.8653 19.627 21.2706 19.6266H23.5665C23.8406 19.6268 24.1095 19.7013 24.3447 19.8422C24.5793 19.7014 24.8477 19.6269 25.1213 19.6266H27.42C27.7066 19.6267 27.9873 19.7082 28.2293 19.8616C28.481 19.708 28.7702 19.6267 29.0651 19.6266H31.6349C32.0641 19.627 32.4756 19.7978 32.7792 20.1013C33.0827 20.4048 33.2534 20.8163 33.2539 21.2455V25.4355L33.6489 25.5798C34.261 25.7995 34.7898 26.2039 35.1622 26.7371C35.5347 27.2702 35.7324 27.9059 35.728 28.5563V33.4941C35.7339 33.9107 35.6548 34.3241 35.4954 34.7091C35.3361 35.0941 35.0999 35.4426 34.8014 35.7332L29.799 40.7355V43.1858C33.0101 42.0555 39.8407 38.5855 39.8407 29.564C39.8407 29.554 39.8407 29.544 39.8414 29.534C40.0419 24.5306 38.2155 19.0182 34.6653 13.8112C34.6301 14.4399 34.5404 15.0644 34.3972 15.6776C34.2989 16.0875 34.0677 16.4532 33.7396 16.7179C33.4116 16.9825 33.0052 17.1311 32.5838 17.1404C32.1625 17.1498 31.7499 17.0195 31.4104 16.7697C31.0709 16.5199 30.8237 16.1648 30.7072 15.7598C28.9916 9.7905 25.8147 6.08841 20.7561 4.19878C21.0245 6.72487 20.957 8.66766 20.5519 10.2488C20.0934 12.0386 19.2007 13.382 17.7424 14.477C17.6565 14.5415 17.5577 14.5868 17.4527 14.6098C17.3477 14.6328 17.2391 14.633 17.134 14.6103C17.029 14.5876 16.93 14.5427 16.8439 14.4784C16.7577 14.4142 16.6864 14.3322 16.6347 14.238C15.6602 12.4627 14.4078 11.2815 12.9016 10.7138C13.0374 11.9125 13.0819 13.1196 13.0348 14.325C12.9585 16.4142 12.575 19.4736 11.1821 22.1767ZM37.4421 4.77938C37.4421 4.97829 37.3631 5.16905 37.2224 5.30971C37.0818 5.45036 36.891 5.52938 36.6921 5.52938C36.0222 5.53012 35.3799 5.79657 34.9062 6.27027C34.4326 6.74396 34.1661 7.38622 34.1654 8.05612C34.1654 8.25504 34.0863 8.4458 33.9457 8.58645C33.805 8.72711 33.6143 8.80612 33.4154 8.80612C33.2164 8.80612 33.0257 8.72711 32.885 8.58645C32.7444 8.4458 32.6654 8.25504 32.6654 8.05612C32.6642 7.38588 32.3972 6.74348 31.923 6.2698C31.4488 5.79612 30.8061 5.52985 30.1359 5.52938C29.937 5.52938 29.7462 5.45036 29.6056 5.30971C29.4649 5.16905 29.3859 4.97829 29.3859 4.77938C29.3859 4.58046 29.4649 4.3897 29.6056 4.24904C29.7462 4.10839 29.937 4.02938 30.1359 4.02938C30.8065 4.02863 31.4494 3.76191 31.9236 3.28772C32.3978 2.81354 32.6646 2.17061 32.6654 1.5C32.6654 1.30109 32.7444 1.11032 32.885 0.96967C33.0257 0.829018 33.2164 0.75 33.4154 0.75C33.6143 0.75 33.805 0.829018 33.9457 0.96967C34.0863 1.11032 34.1654 1.30109 34.1654 1.5C34.1659 2.17023 34.4321 2.8129 34.9058 3.28706C35.3795 3.76123 36.0219 4.02818 36.6921 4.02938C36.891 4.02938 37.0818 4.10839 37.2224 4.24904C37.3631 4.3897 37.4421 4.58046 37.4421 4.77938ZM34.3544 4.77938C33.9918 4.5197 33.6745 4.20215 33.4151 3.83944C33.1554 4.20217 32.8379 4.51972 32.4751 4.77938C32.8379 5.0388 33.1554 5.35616 33.4151 5.71875C33.6745 5.35612 33.9918 5.03887 34.3544 4.77938ZM0.0175781 18.2611C0.0175781 18.0622 0.0965957 17.8714 0.237248 17.7308C0.3779 17.5901 0.568666 17.5111 0.767578 17.5111C1.43749 17.5103 2.07974 17.2439 2.55344 16.7702C3.02713 16.2965 3.29358 15.6543 3.29433 14.9843C3.29433 14.7854 3.37335 14.5947 3.514 14.454C3.65465 14.3134 3.84542 14.2343 4.04433 14.2343C4.24324 14.2343 4.43401 14.3134 4.57466 14.454C4.71531 14.5947 4.79433 14.7854 4.79433 14.9843C4.79552 15.6546 5.06247 16.297 5.53664 16.7706C6.01081 17.2443 6.65348 17.5106 7.3237 17.5111C7.52262 17.5111 7.71338 17.5901 7.85403 17.7308C7.99468 17.8714 8.0737 18.0622 8.0737 18.2611C8.0737 18.46 7.99468 18.6508 7.85403 18.7914C7.71338 18.9321 7.52262 19.0111 7.3237 19.0111C6.6531 19.0118 6.01017 19.2786 5.53599 19.7528C5.0618 20.2269 4.79507 20.8699 4.79433 21.5405C4.79433 21.7394 4.71531 21.9301 4.57466 22.0708C4.43401 22.2115 4.24324 22.2905 4.04433 22.2905C3.84542 22.2905 3.65465 22.2115 3.514 22.0708C3.37335 21.9301 3.29433 21.7394 3.29433 21.5405C3.29383 20.8702 3.02755 20.2276 2.55387 19.7534C2.0802 19.2792 1.4378 19.0123 0.767578 19.0111C0.568666 19.0111 0.3779 18.9321 0.237248 18.7914C0.0965957 18.6508 0.0175781 18.46 0.0175781 18.2611ZM3.10523 18.2611C3.46778 18.5207 3.78512 18.8382 4.04452 19.2009C4.30417 18.8383 4.62169 18.5209 4.98436 18.2614C4.62167 18.0019 4.30412 17.6845 4.04442 17.322C3.78502 17.6845 3.46772 18.0016 3.10523 18.2611Z" fill="currentColor"></path></g></svg>