<svg width="69" height="69" viewBox="0 0 69 69" fill="none" xmlns="http://www.w3.org/2000/svg">
<path d="M34.5 67L28 47.5H2L8.5 67H34.5ZM34.5 67H47.5M34.5 37.75V36.125C34.5 29.9955 34.5 26.934 32.5955 25.0295C30.691 23.125 27.6295 23.125 21.5 23.125C15.3705 23.125 12.309 23.125 10.4045 25.0295C8.5 26.934 8.5 29.9955 8.5 36.125V37.75M41 52.375H60.5C62.2239 52.375 63.8772 53.0598 65.0962 54.2788C66.3152 55.4978 67 57.1511 67 58.875V60.5C67 62.2239 66.3152 63.8772 65.0962 65.0962C63.8772 66.3152 62.2239 67 60.5 67H57.25M57.25 37.75C57.25 39.4739 56.5652 41.1272 55.3462 42.3462C54.1272 43.5652 52.4739 44.25 50.75 44.25C49.0261 44.25 47.3728 43.5652 46.1538 42.3462C44.9348 41.1272 44.25 39.4739 44.25 37.75C44.25 36.0261 44.9348 34.3728 46.1538 33.1538C47.3728 31.9348 49.0261 31.25 50.75 31.25C52.4739 31.25 54.1272 31.9348 55.3462 33.1538C56.5652 34.3728 57.25 36.0261 57.25 37.75ZM28 8.5C28 10.2239 27.3152 11.8772 26.0962 13.0962C24.8772 14.3152 23.2239 15 21.5 15C19.7761 15 18.1228 14.3152 16.9038 13.0962C15.6848 11.8772 15 10.2239 15 8.5C15 6.77609 15.6848 5.12279 16.9038 3.90381C18.1228 2.68482 19.7761 2 21.5 2C23.2239 2 24.8772 2.68482 26.0962 3.90381C27.3152 5.12279 28 6.77609 28 8.5Z" stroke="#241F20" stroke-width="4" stroke-linecap="round" stroke-linejoin="round"/>
</svg>
