<svg width="65" height="65" viewBox="0 0 65 65" fill="none" xmlns="http://www.w3.org/2000/svg">
<path d="M18.8094 65C13.5877 65 9.1474 63.1705 5.48844 59.5116C1.82948 55.8526 0 51.4109 0 46.1866C0 43.9793 0.375104 41.8397 1.12531 39.7678C1.87552 37.6959 2.95885 35.8069 4.37531 34.1006L18.6428 16.9691L10.1928 0H54.8072L46.3572 16.9691L60.6247 34.1006C62.0411 35.8042 63.1245 37.6919 63.8747 39.7638C64.6249 41.8383 65 43.9793 65 46.1866C65 51.4109 63.1665 55.8526 59.4994 59.5116C55.8323 63.1705 51.396 65 46.1906 65H18.8094ZM32.5 46.6375C30.6827 46.6375 29.1349 45.9997 27.8566 44.7241C26.5782 43.4457 25.9391 41.8979 25.9391 40.0806C25.9391 38.2606 26.5782 36.7115 27.8566 35.4331C29.1349 34.1548 30.6827 33.5156 32.5 33.5156C34.3173 33.5156 35.8651 34.1548 37.1434 35.4331C38.4218 36.7115 39.0609 38.2606 39.0609 40.0806C39.0609 41.9006 38.4218 43.4484 37.1434 44.7241C35.8651 45.9997 34.3173 46.6375 32.5 46.6375ZM22.3844 15.2344H42.6969L48.2422 4.0625H16.7578L22.3844 15.2344ZM18.8094 60.9375H46.1906C50.3073 60.9375 53.7943 59.4967 56.6516 56.615C59.5089 53.7333 60.9375 50.2572 60.9375 46.1866C60.9375 44.4586 60.6491 42.7795 60.0722 41.1491C59.4953 39.5186 58.649 38.0453 57.5331 36.7291L42.9894 19.2969H22.1081L7.54812 36.7047C6.42687 38.0264 5.56563 39.5051 4.96438 41.1409C4.36313 42.7768 4.0625 44.4586 4.0625 46.1866C4.0625 50.2545 5.50469 53.7306 8.38906 56.615C11.2707 59.4967 14.7442 60.9375 18.8094 60.9375Z" fill="#241F20"/>
</svg>
