<svg xmlns="http://www.w3.org/2000/svg" width="100%" height="100%" viewBox="0 0 42 48" fill="none" preserveAspectRatio="xMidYMid meet" aria-hidden="true" role="img">
<path d="M0 43.7092C0.01324 44.4796 0.23744 45.2316 0.64816 45.8836C1.05888 46.5352 1.6404 47.0624 2.32956 47.4068C3.01776 47.7956 3.79476 48 4.5852 48C5.37564 48 6.15264 47.7956 6.84084 47.4068L38.8266 27.6238C39.5226 27.2885 40.1098 26.7636 40.5206 26.1095C40.9314 25.4554 41.1494 24.6986 41.1494 23.926C41.1494 23.1535 40.9314 22.3967 40.5206 21.7426C40.1098 21.0884 39.5226 20.5636 38.8266 20.2283L6.84084 0.5932C6.15264 0.20432 5.37564 0 4.5852 0C3.79476 0 3.01776 0.20432 2.32956 0.5932C1.6404 0.93776 1.05888 1.46468 0.64816 2.1166C0.23744 2.76852 0.01324 3.52056 0 4.29096V43.7092Z" fill="currentColor"></path>
</svg>