<svg width="40" height="40" viewBox="0 0 40 40" fill="none" xmlns="http://www.w3.org/2000/svg">
<path d="M33.75 26.25H31.25C31.25 22.7213 31.25 17.39 18.6375 16.245L18.8625 13.755C33.75 15.1062 33.75 22.355 33.75 26.25ZM21.1375 26.245C6.25 24.8938 6.25 17.645 6.25 13.75H8.75C8.75 17.2787 8.75 22.61 21.3625 23.755L21.1375 26.245Z" fill="#333333"/>
<path d="M28.75 25.65C28.75 19.875 24.025 19.225 20.225 18.7C16.0875 18.125 13.75 17.625 13.75 14.0625C13.75 11.075 16.8875 10.0125 19.5625 10.0125C22.4625 10.0125 24.7375 11.0875 26.525 13.3L28.475 11.725C26.575 9.375 24.15 8.0125 21.25 7.625V3.75H18.75V7.525C14.225 7.8 11.25 10.35 11.25 14.05C11.25 19.9625 16.0375 20.625 19.8875 21.1625C23.95 21.725 26.25 22.2125 26.25 25.6375C26.25 29.425 22.3375 29.9875 20 29.9875C15.7125 29.9875 13.9 28.7875 12.225 26.7L10.275 28.275C12.4875 31.0125 14.9375 32.2375 18.75 32.45V36.25H21.25V32.45C25.9125 32.075 28.75 29.5375 28.75 25.65Z" fill="#333333"/>
</svg>
