<svg width="150" height="150" viewBox="0 0 150 150" fill="none" xmlns="http://www.w3.org/2000/svg">
<path d="M109.375 84.9937C107.3 84.707 105.216 84.5006 103.125 84.375C98.1522 84.375 93.3831 86.3504 89.8667 89.8667C86.3504 93.383 84.375 98.1522 84.375 103.125V109.375H113.606C114.877 109.374 116.13 109.081 117.269 108.518C118.407 107.954 119.401 107.136 120.172 106.126C120.944 105.117 121.472 103.943 121.716 102.697C121.961 101.45 121.914 100.163 121.581 98.9375L112.5 65.225M43.75 128.125H150M43.75 146.875C37.5 146.875 32.8125 137.5 32.8125 137.5C28.125 128.125 28.125 121.875 28.125 112.5V106.25L3.125 85.9375V84.375L14.3063 53.0687C15.6068 49.4271 18.0016 46.2766 21.1624 44.0489C24.3232 41.8212 28.0955 40.6253 31.9625 40.625H40.625V62.1625C40.6245 63.8967 41.0883 65.5994 41.9683 67.0938C42.8483 68.5881 44.1124 69.8196 45.6292 70.6603C47.146 71.501 48.8602 71.9202 50.5938 71.8744C52.3274 71.8286 54.0172 71.3195 55.4875 70.4L78.125 56.25M3.125 148.437C3.125 148.437 12.5 131.25 12.5 109.375M149.063 89.8875C141.533 89.0071 134.008 88.0925 126.488 87.1437L149.063 89.8875ZM71.875 99.375C71.875 99.375 65.625 109.375 57.8125 109.375C54.9117 109.375 52.1297 108.223 50.0785 106.171C48.0273 104.12 46.875 101.338 46.875 98.4375C46.875 92.4 51.7687 87.525 57.8125 87.525C65.625 87.525 71.875 97.5 71.875 97.5V99.375ZM109.375 65.625C106.06 65.625 102.88 64.308 100.536 61.9638C98.192 59.6196 96.875 56.4402 96.875 53.125C96.875 49.8098 98.192 46.6304 100.536 44.2862C102.88 41.942 106.06 40.625 109.375 40.625C112.69 40.625 115.87 41.942 118.214 44.2862C120.558 46.6304 121.875 49.8098 121.875 53.125C121.875 56.4402 120.558 59.6196 118.214 61.9638C115.87 64.308 112.69 65.625 109.375 65.625ZM44.375 28.125C44.375 28.125 34.375 21.875 34.375 14.0625C34.375 11.165 35.526 8.38619 37.5749 6.33735C39.6237 4.28852 42.4025 3.1375 45.3 3.1375C48.1975 3.1375 50.9763 4.28852 53.0251 6.33735C55.074 8.38619 56.225 11.165 56.225 14.0625C56.225 21.875 46.25 28.125 46.25 28.125H44.375Z" stroke="black" stroke-width="4"/>
</svg>
