<svg width="16" height="16" viewBox="0 0 16 16" fill="none" xmlns="http://www.w3.org/2000/svg" class="max-md:w-3 max-md:h-3" style="margin-right:45px;display:flex"><path d="M.5 2.29a1.667 1.667 0 1 1 3.333 0 1.667 1.667 0 0 1-3.333 0Zm0 5.834a1.667 1.667 0 1 1 3.333 0 1.667 1.667 0 0 1-3.333 0Zm1.667 4.167a1.667 1.667 0 1 0 0 3.333 1.667 1.667 0 0 0 0-3.333Zm4.166-10a1.667 1.667 0 1 1 3.334 0 1.667 1.667 0 0 1-3.334 0ZM8 6.457a1.667 1.667 0 1 0 0 3.334 1.667 1.667 0 0 0 0-3.334Zm-1.667 7.5a1.667 1.667 0 1 1 3.334 0 1.667 1.667 0 0 1-3.334 0Zm7.5-13.333a1.667 1.667 0 1 0 0 3.333 1.667 1.667 0 0 0 0-3.333Zm-1.666 7.5a1.667 1.667 0 1 1 3.333 0 1.667 1.667 0 0 1-3.333 0Zm1.666 4.167a1.667 1.667 0 1 0 0 3.333 1.667 1.667 0 0 0 0-3.333Z" fill="#D9DEEB"></path></svg>