<svg width="142" height="141" viewBox="0 0 142 141" fill="none" xmlns="http://www.w3.org/2000/svg"><g clip-path="url(#a)"><path d="M7.602 102.023a104.423 104.423 0 0 0 23.863-16.644c5.553-5.196 9.82-10.378 17.355-19.54A435.074 435.074 0 0 0 59.666 52.09c-3.152-2.895-8.901-7.15-14.462-5.79-2.444.601-5.489 3.055-11.57 7.961a128.307 128.307 0 0 0-4.339 3.618 11.15 11.15 0 0 1 1.447 2.895c.195.593 1.923 6.043-.724 7.96-1.8 1.31-4.57.203-5.061 0a4.805 4.805 0 0 1-3.616 2.171 4.718 4.718 0 0 1-3.616-1.447c-2.307-.13-3.254-1.02-3.615-1.447-1.931-2.273-.846-7.476 3.615-12.303-.173-3.263.723-7.96 2.893-15.92.998-3.662 5.062-11.29 13.74-15.197 8.46-3.8 16.472-1.491 18.8-.724a19.087 19.087 0 0 1 3.616-5.79c-.275-.188-2.892-2.019-2.892-5.065 0-3.821 4.056-5.667 4.338-5.79a7.63 7.63 0 0 1 5.785 0c.803.35 1.538.84 2.17 1.448 3.55-.97 7.296-.97 10.847 0 2.135.448 4.304.93 6.508 1.447 2.972.724 5.864 1.447 8.677 2.171a18.675 18.675 0 0 0-2.892 4.342c-1.36 2.837-1.208 4.407-2.17 6.513-.723 1.621-2.263 3.821-5.785 5.79l7.955 5.065a25.872 25.872 0 0 1 7.954-2.17c1.678-.167 2.56-.073 3.616-.724 2.089-1.289 2.466-4.039 2.892-6.514.499-2.894 2.799-7.772 4.339-13.026-1.996-2.475-3.616-4.805-2.169-6.513a4.55 4.55 0 0 1 2.892-1.447l6.508-2.171a2.554 2.554 0 0 1 2.17 0c1.005.586 1.446 2.171.723 3.618a3.072 3.072 0 0 1 2.169 1.448c.824 1.606-.419 4.487-3.616 6.513a46.313 46.313 0 0 1 1.447 7.236 39.374 39.374 0 0 1-.723 15.198 35.127 35.127 0 0 1-8.678 15.197 25.845 25.845 0 0 1 8.678 3.618c12.068 7.96 12.922 23.65 13.016 26.052-8.439 4.581-16.871 8.445-25.31 13.026-2.653-4.342-5.3-7.96-7.954-12.302a8.088 8.088 0 0 0-7.231-4.342c-4.057.072-6.306 3.321-6.508 3.618a249.573 249.573 0 0 1-12.293 13.75 252.626 252.626 0 0 1-44.834 36.907L7.602 102.023Z" fill="#fff"></path><path d="M112.288-.014c.802.362 1.807.18 2.458.955.138.166.347-.094.528-.137 2.271-.5 3.963.984 3.616 3.27-.065.456.115.362.347.45 2.169.853 2.683 3.039 1.142 4.833-.18.21-.354.442-.643.297-.412-.21-.058-.456.036-.651.723-1.563.47-2.294-1.128-2.99-.673-.289-1.049-.52-.535-1.36.513-.839-.268-2.127-1.353-2.424a3.826 3.826 0 0 0-1.648-.065c2.213 2.171 1.634 3.655-2.076 5.21.486.822.717 1.769.666 2.721 0 .34-.058.68-.485.724-.426.043-.665-.21-.723-.622a8.241 8.241 0 0 0-.723-2.432c-.275-.571-.116-1.02.636-1.078a3.859 3.859 0 0 0 2.466-1.266c.463-.464.723-.948.217-1.55a1.222 1.222 0 0 0-1.641-.404c-.724.333-1.447.723-2.17.962a6.755 6.755 0 0 1-2.82.297c-.644-.044-.889.224-.911.84a7.643 7.643 0 0 0 .542 2.98c.221.438.384.903.485 1.383.115 1.332.947 1.83 2.104 2.171 1.157.34 2.112.688 3.167 1.035.376.13.846.246.723.723-.122.478-.556.406-.969.384a16.737 16.737 0 0 1-4.121-.876c-1.613-.463-1.801-.31-2.401 1.216-1.772 4.509-2.632 9.234-3.457 13.974-.477 2.743-1.359 3.655-4.07 4.176-2.286.441-4.585.796-6.878 1.18-.658.108-1.034.202-.622 1.085a8.69 8.69 0 0 1 .275 6.6 38.77 38.77 0 0 1-4.65 8.858c-.086.13-.151.282-.23.427.26.282.476.072.722 0a38.763 38.763 0 0 1 14.311-3.134c2.067-.06 4.133.132 6.154.572.253.05.477.239.723-.174 1.489-2.547 3.145-4.986 4.476-7.627 1.793-3.575 2.415-7.476 3.145-11.34.577-2.672.653-5.428.225-8.127-.116-.659-.261-1.093-1.121-1.086-1.634 0-3.131-.651-4.628-1.23a1.274 1.274 0 0 1-.911-1.447 1.215 1.215 0 0 1 1.323-1.079c2.169.145 4.339.442 6.262 1.694.492.328.862.809 1.056 1.368 1.504 3.734 1.323 7.548.781 11.434-.962 6.838-4.194 12.563-8.374 17.867l-.34.434a23.806 23.806 0 0 1 6.205 3.401 25.795 25.795 0 0 1 5.495 6.13 57.051 57.051 0 0 1 8.056 18.815 2.037 2.037 0 0 0 1.049 1.484 9.774 9.774 0 0 1 2.892 2.793 1.154 1.154 0 0 0 1.331.514c1.446-.282 2.892-.55 4.338-.774 1.237-.188 1.664.354 1.237 1.527a5.284 5.284 0 0 1-.441.984c-3.261 5.407-7 10.51-11.172 15.248-2.408 2.706-3.71 2.728-6.603.492a30.223 30.223 0 0 1-8.316-10.457c-.245-.478-.39-.565-.846-.304-1.164.673-2.35 1.302-3.528 1.946-.174.094-.333.21-.514.29-.354.145-.774.398-1.048-.044-.275-.441 0-.723.376-.99.622-.428 1.222-.891 1.873-1.26 5.286-3.04 10.622-5.978 16.053-8.75.325-.159.629-.368.962-.491.817-.297.824-.724.542-1.513-.282-.789-.571-1.02-1.446-.593-4.433 2.17-8.627 4.704-12.879 7.171-2.545 1.448-5.062 3.025-7.6 4.523a6.917 6.917 0 0 1-2.357.956 2.117 2.117 0 0 1-2.466-1.31 1.834 1.834 0 0 1 .623-2.005 1.83 1.83 0 0 1 .664-.326 62.186 62.186 0 0 0 6.204-2.72c3.739-1.817 7.477-3.619 11.187-5.515a28.415 28.415 0 0 1 6.573-2.562c.528-.116.434-.318.311-.644-2.603-6.846-6.342-12.96-11.823-17.889a17.955 17.955 0 0 0-11.107-4.48 39.905 39.905 0 0 0-17.738 2.57 13.885 13.885 0 0 0-5.684 3.936c-.282.34-.579.68-1.078.42a1.07 1.07 0 0 1-.513-1.187 4.068 4.068 0 0 1 .824-1.867 12.855 12.855 0 0 1 2.893-3.054 5.434 5.434 0 0 0 1.779-2.236c1.446-2.851 2.798-5.68 3.384-8.872a9.096 9.096 0 0 0-2.488-8.395 20.716 20.716 0 0 1-1.59-1.874 1.701 1.701 0 0 1-.058-2.265c.643-.724 1.446-.644 2.249-.26a10.85 10.85 0 0 1 2.892 2.308c.224.217.369.5.81.304 2.379-1.035 4.939-1.26 7.463-1.65 3.066-.478 3.196-.565 3.977-3.619.781-3.053 1.959-5.97 2.227-9.132a113.9 113.9 0 0 1 .304-3.126 3.879 3.879 0 0 1 1.251-2.7.724.724 0 0 0 .238-.94 93.964 93.964 0 0 1-.954-3.3 6.127 6.127 0 0 1-.094-2.352c.217-1.759 1.099-2.584 2.834-2.613a.927.927 0 0 0 .977-.6 4.097 4.097 0 0 1 2.278-2.171l1.034.007Zm5.951 86.898a67.32 67.32 0 0 0 8.569 8.684c1.114.89 1.128.92 2.169-.108a145.074 145.074 0 0 0 10.558-12.042c.051-.058.043-.16.08-.297-1.241.15-2.456.462-3.616.926-1.887.825-2.567.68-4.05-.81-.723-.724-1.142-2.106-2.089-2.171-.948-.065-1.866.84-2.813 1.28a96.792 96.792 0 0 0-8.808 4.538Zm-8.077-84.373c1.446-.318 2.755-.788 4.179-.55.181 0 .326 0 .319-.246a.295.295 0 0 0-.155-.299.292.292 0 0 0-.113-.034c-.506-.108-1.005-.296-1.511-.361a2.314 2.314 0 0 0-2.727 1.49h.008ZM56.919 51.923c-3.074-1.295-5.988-2.59-9.213-2.895-2.67-.319-5.358.425-7.484 2.07-2.17 1.665-4.397 3.206-6.668 4.711a12.469 12.469 0 0 1-5.712 2.222 7.588 7.588 0 0 1-3.543-.557c-.377-.152-.861-.355-.724-.898.138-.542.63-.636 1.114-.571.747.065 1.487.193 2.213.383a1.742 1.742 0 0 0 1.771-.514c1.251-1.02 2.17-2.359 3.37-3.437 1.446-1.324 2.893-2.692 4.339-3.995 3.457-3.06 7.47-3.734 11.86-2.684a31.03 31.03 0 0 1 5.74 2.004c2.8 1.288 5.627 2.519 8.404 3.85a22.664 22.664 0 0 0 6.55 1.925c.478.072 1.013.16.977.724-.036.564-.629.658-1.135.608a31.335 31.335 0 0 1-7.31-1.36c-.58-.19-.92-.138-1.201.397a2.17 2.17 0 0 1-.535.579c-4.34 3.749-7.644 8.366-10.58 13.25a51.515 51.515 0 0 1-16.9 17.426c-2.993 1.882-5.922 3.88-8.908 5.79-3.146 1.997-5.886 4.494-8.786 6.824 2.422 1.997 3.666 4.791 5.163 7.36 3.739 6.411 7.897 12.534 12.09 18.641 1.122 1.636 1.071 1.665 2.705.587 10.58-6.991 20.132-15.197 29.287-23.961 2.777-2.649 5.604-5.247 7.701-8.51.296-.456.535-.956.853-1.404a.825.825 0 0 1 1.1-.384.868.868 0 0 1 .34 1.201 13.977 13.977 0 0 1-2.633 4.096c-3.876 4.342-8.178 8.236-12.394 12.223a236.302 236.302 0 0 1-24.883 20.371c-2.3 1.643-4.765 3.004-7.108 4.574a2.847 2.847 0 0 1-3.464-.398 8.762 8.762 0 0 1-1.7-2.171c-1.055-1.621-2.11-3.235-3.138-4.877-.282-.442-.462-.485-.875-.138-2.588 2.171-5.25 4.262-8.012 6.209a6.28 6.28 0 0 0-1.771 2.077c-1.259 2.171-2.17 4.501-3.558 6.564a4.497 4.497 0 0 1-.6.774c-.687.644-1.389.413-1.7-.478a29.586 29.586 0 0 1-1.323-8.995c-.072-2.822-.354-5.637-.535-8.452-.058-1.013-.065-2.034-.116-3.047a9.72 9.72 0 0 1 2.56-7.034 247.95 247.95 0 0 1 4.556-5.066c.513-.55.723-.991.224-1.679a5.42 5.42 0 0 1-.608-1.447 1.933 1.933 0 0 1 .723-2.359c4.274-3.12 8.078-6.803 12.149-10.132 2.892-2.38 5.944-4.537 9.01-6.679a51 51 0 0 0 16.48-18.96c2.003-3.915 4.245-7.7 7.39-10.855a27.989 27.989 0 0 1 4.448-3.503Zm-54.38 85.943c.449-.173.507-.6.644-.948.63-1.548 1.244-3.104 1.96-4.609a10.089 10.089 0 0 1 3.493-4.039c2.603-1.773 5.127-3.618 7.7-5.463.362-.254.47-.427.232-.84-1.996-3.386-3.963-6.78-6.002-10.269-1.518 1.962-3.398 3.438-5.156 5.066a6.32 6.32 0 0 0-1.98 3.749c-.428 2.431-.507 4.892-.724 7.345-.253 3.3-1.02 6.614-.166 10.008Zm10.71-38.89c-.998.883-1.793 1.614-2.625 2.309-.405.333-.44.564-.123 1.027 1.548 2.2 3.064 4.42 4.549 6.658 4.02 6.065 8.012 12.158 12.394 17.969.962 1.266.947 1.245 2.35.405.376-.224.441-.376.174-.724-2.17-2.894-3.573-6.18-5.41-9.234-3.723-6.151-7.794-12.063-11.33-18.41h.021Z" fill="#1E2532"></path><path d="M74.663 13.887a3.701 3.701 0 0 1 2.024 1.115 1.447 1.447 0 0 1 .16 1.816 1.308 1.308 0 0 1-1.772.282c-1.447-.644-2.17-.513-2.705.47-.535.985-.18 2.013.89 2.809.729.51 1.617.739 2.502.644.622-.037 1.59-.304 1.663.687.072.992-.926.861-1.54.883a2.096 2.096 0 0 0-1.49.572c-.208.206-.454.37-.723.485-1.953.63-3.247 2.026-4.339 3.777 1.02.42 2.076.832 3.124 1.274 3.399 1.447 6.696 3.025 9.328 5.695 1.367 1.382 2.235 3.148 3.348 4.726.326.47.557.854 1.186.354.355-.282.6-.043.6.398v.391c0 .847.109 1.81-.896 2.171-1.005.362-1.446-.42-1.981-.962a23.104 23.104 0 0 1-3.341-4.342 30.469 30.469 0 0 0-2.076 5.485c-.178.629-.39 1.247-.636 1.853a1.882 1.882 0 0 1-2.273 1.186 1.88 1.88 0 0 1-.808-.463 5.629 5.629 0 0 1-1.352-1.679 38.077 38.077 0 0 1-3.615-8.908 1.1 1.1 0 0 0-1.172-.948 104.784 104.784 0 0 1-14.853-2.822 130.177 130.177 0 0 0-15.012-2.982c-5.062-.673-9.01.905-12.04 4.972a38.18 38.18 0 0 0-6.212 13.026c-.904 3.387-.947 6.795-1.091 10.225a1.919 1.919 0 0 0 .867 1.773 16.278 16.278 0 0 0 4.267 2.171 2.269 2.269 0 0 0 2.458-.514c1.194-1.186 3.103-.448 3.746.768a7.423 7.423 0 0 1 .89 4.081c-.044.543-.189 1.006-.825.992-.636-.015-.723-.514-.81-1.043a6.515 6.515 0 0 0-1.244-3.661c-.397-.492-.723-.608-1.236-.152-1.345 1.143-2.893 1.02-4.476.593A21.739 21.739 0 0 1 18.7 59.4c-.376-.203-.607-.304-.824.195a31.536 31.536 0 0 0-2.17 5.587c-.224 1.013-.238 2.222.586 2.743a18.067 18.067 0 0 0 4.52 1.91c.723.217 1.446-.492 1.887-1.194.94-1.447 1.128-1.447 2.726-1.064a4.655 4.655 0 0 0 3.616-.513c.6-.362 1.091-.478 1.576 0a1.346 1.346 0 0 1 .101 1.802.84.84 0 0 1-.253.296c-1.88 1.245-3.84 2.171-6.146 1.31a.969.969 0 0 0-.984.116c-1.786 1.165-3.507 1.129-5.12-.333a.796.796 0 0 0-.723-.174c-2.675.355-4.339-.897-4.874-3.56-.277-1.86-.048-3.76.666-5.5a21.208 21.208 0 0 1 2.408-4.827c.146-.175.246-.384.289-.608.152-2.287 1.273-4.255 2.09-6.317.203-.455.295-.95.267-1.448-.12-2.005.098-4.016.644-5.948 1.446-5.254 3.558-10.219 7.08-14.474 2.892-3.495 6.717-5.123 11.157-5.434 4.845-.34 9.625.325 14.39 1.1.557.094.84.08.883-.587.195-2.72 1.93-4.262 4.208-5.355.35-.182.715-.33 1.092-.441.665-.174.723-.507.448-1.079a3.7 3.7 0 0 1 .058-3.415 3.169 3.169 0 0 1 3.674-1.578 8.248 8.248 0 0 1 2.892 1.578c.459.366.942.7 1.446.998a1.446 1.446 0 0 0 1.989-.405c1.613-1.838 3.037-1.881 4.708-.16.289.298.383.298.65 0 1.259-1.309 3.616-.788 5.012.124a.514.514 0 0 1 .26.673c-.18.405-.463.195-.723.094a4.465 4.465 0 0 0-3.543.376Zm-4.072 6.296c-2.22 2.171-3.912 2.446-6.508.89-1.23-.723-1.62-1.367-1.316-2.12.304-.753.998-.919 2.48-.47 1.2.361 2.35.275 3.103-.796a7.19 7.19 0 0 1 3.47-3.01c.485-.175 1.28-.305 1.266-1.065-.014-.76-.933-.665-1.446-.977a1.597 1.597 0 0 0-2.17.442c-1.713 1.932-2.567 2.127-4.953 1.078a7.632 7.632 0 0 0-2.126-.724c-.766-.1-1.135.232-1.048.992.086.76.18 1.498.318 2.236a2.825 2.825 0 0 1-2.22 3.48 11.84 11.84 0 0 1-1.953.204 3.006 3.006 0 0 0-3.022 2.576c-.116.579.065.803.636.94 3.218.724 6.45 1.448 9.64 2.352a3.295 3.295 0 0 0 3.803-1.215A6.26 6.26 0 0 1 71.9 22.89c.489-.082.94-.312 1.295-.659-.478-.318-.955-.586-1.381-.926-.427-.34-.818-.745-1.223-1.122Zm5.496 20.987c.383-1.158.673-2.063.983-2.953.254-.724.912-1.606.724-2.17-.188-.565-1.23-.978-1.91-1.448-.932-.63-1.872-1.245-2.812-1.86l-.232.21a64.365 64.365 0 0 0 3.247 8.199v.022Z" fill="#1E2532"></path><path d="M90.441 13.12c-2.784.268-5.018-.724-7.231-1.816a7.127 7.127 0 0 0-2.076-.565c-.773-.123-1.316-.528-1.272-1.36.043-.833.665-1.151 1.446-1.216.99-.09 1.987.079 2.893.492a36.543 36.543 0 0 0 6.746 2.352c1.678.427 1.91.977.984 2.446a18.91 18.91 0 0 0-2.459 6.585 11.24 11.24 0 0 1-4.339 7.056 5.88 5.88 0 0 1-1.33.818 1.25 1.25 0 0 1-1.714-.485c-.376-.666 0-1.143.513-1.52a31.225 31.225 0 0 0 2.329-2.258c.492-.492.39-.723-.13-1.121a7.958 7.958 0 0 1-2.097-2.171 2.172 2.172 0 0 1-.319-2.403 2.242 2.242 0 0 1 2.293-1.02 8.002 8.002 0 0 1 2.646.723c.507.203.724.196.875-.383a12 12 0 0 1 2.242-4.154Zm-5.872 5.261c-.94-.058-1.164.239-.723.999a8.335 8.335 0 0 0 2.112 2.417c.144.123.318.253.484 0 .452-.67.806-1.4 1.049-2.171 0-.13 0-.232-.174-.297a10.417 10.417 0 0 0-2.748-.948ZM52.144 12.599a5.72 5.72 0 0 1 3.558-5.391c3.312-1.57 6.602-1.969 9.675.607a1.496 1.496 0 0 0 1.974.138c1.981-1.353 4.086-1.382 6.306-.724.715.147 1.44.236 2.17.268.39.036.776.101 1.156.195a1.54 1.54 0 0 1 1.2 1.607 1.608 1.608 0 0 1-1.402 1.556 3.071 3.071 0 0 1-1.656-.08 6.772 6.772 0 0 1-1.91-.723c-1.923-1.375-3.883-1.882-6.146-.825-.723.333-1.446-.051-2.17-.398a6.995 6.995 0 0 0-9.19 2.894 2.006 2.006 0 0 0 .123 2.468c.412.492.723 1.129.217 1.7a1.518 1.518 0 0 1-1.989.24 3.697 3.697 0 0 1-1.916-3.532ZM90.034 75.428a6.885 6.885 0 0 1 4.954 1.954 16.42 16.42 0 0 1 3.861 5.53c.268.592.637 1.403-.246 1.801-.882.398-1.345-.188-1.742-.868a17.763 17.763 0 0 0-2.17-2.895 4.7 4.7 0 0 0-5.438-1.353c-1.446.564-2.892 1.295-4.338 1.903-1.447.608-2.17.441-2.64-.34-.47-.782-.144-1.65.955-2.526a15.43 15.43 0 0 1 4.7-2.808 5.874 5.874 0 0 1 2.104-.398ZM73.005 62.525c-.723-.086-1.446-.123-2.17-.275a2.118 2.118 0 0 1-1.706-2.105 2.084 2.084 0 0 1 1.772-2.049 6.23 6.23 0 0 1 4.52 1.195 1.541 1.541 0 0 1 .556 1.845 1.758 1.758 0 0 1-1.54 1.324c-.482.028-.965.028-1.446 0l.014.065Z" fill="#1E2532"></path><path d="M83.578 14.104c-.066.167 0 .615-.297.427a3.45 3.45 0 0 1-1.497-1.585c-.123-.31.145-.55.506-.535.514.021 1.287 1.078 1.287 1.693Z" fill="#1E2532"></path><path d="M118.238 86.884a96.864 96.864 0 0 1 8.765-4.538c.947-.441 1.894-1.324 2.813-1.28.918.043 1.366 1.41 2.089 2.17 1.447 1.491 2.17 1.636 4.05.811a14.391 14.391 0 0 1 3.615-.926c0 .137 0 .239-.079.296a144.891 144.891 0 0 1-10.558 12.042c-1.034 1.028-1.048.999-2.169.109a67.3 67.3 0 0 1-8.526-8.684ZM110.152 2.511a2.318 2.318 0 0 1 2.719-1.49c.506.065 1.006.253 1.512.361a.297.297 0 0 1 .267.333c0 .225-.137.275-.318.246-1.425-.239-2.77.232-4.18.55ZM2.537 137.866c-.832-3.394-.065-6.708.195-10.03.188-2.453.268-4.913.723-7.345a6.32 6.32 0 0 1 1.982-3.749c1.757-1.606 3.615-3.082 5.156-5.065 2.039 3.488 4.006 6.882 6.002 10.269.238.412.13.586-.232.839-2.574 1.809-5.062 3.691-7.701 5.464a10.079 10.079 0 0 0-3.493 4.038c-.723 1.505-1.33 3.061-1.96 4.61-.187.369-.245.796-.672.969ZM13.226 98.977c3.537 6.346 7.608 12.259 11.31 18.403 1.837 3.053 3.24 6.375 5.41 9.234.267.354.202.506-.174.723-1.403.84-1.389.861-2.35-.405-4.383-5.789-8.374-11.904-12.395-17.969a251.406 251.406 0 0 0-4.548-6.658c-.319-.463-.282-.723.123-1.027.831-.702 1.627-1.426 2.624-2.301ZM70.59 20.183c.405.377.788.774 1.222 1.115.434.34.904.608 1.381.926a2.415 2.415 0 0 1-1.294.659 6.262 6.262 0 0 0-3.356 2.105 3.298 3.298 0 0 1-3.803 1.216c-3.19-.89-6.422-1.6-9.64-2.352-.57-.137-.723-.362-.636-.94a3.011 3.011 0 0 1 3.023-2.577 11.827 11.827 0 0 0 1.952-.203 2.82 2.82 0 0 0 2.22-3.48 25.648 25.648 0 0 1-.318-2.237c-.08-.788.282-1.092 1.048-.99.74.134 1.457.378 2.127.723 2.386 1.05 3.24.854 4.953-1.079a1.597 1.597 0 0 1 2.17-.441c.477.311 1.395.123 1.446.977.05.854-.781.89-1.266 1.064a7.19 7.19 0 0 0-3.47 3.01c-.724 1.071-1.903 1.158-3.103.796-1.446-.448-2.17-.31-2.48.47-.311.782.086 1.383 1.316 2.121 2.596 1.563 4.259 1.353 6.508-.883ZM76.089 41.148a64.375 64.375 0 0 1-3.269-8.192l.232-.21c.94.615 1.88 1.23 2.813 1.86.68.456 1.67.803 1.909 1.447.238.644-.448 1.448-.723 2.171-.29.84-.579 1.766-.962 2.924ZM84.57 18.381c.942.187 1.855.504 2.71.94.145.066.21.167.174.297a8.388 8.388 0 0 1-1.048 2.172c-.166.238-.34.108-.485 0a8.335 8.335 0 0 1-2.111-2.418c-.405-.752-.18-1.049.76-.99Z" fill="#fff"></path></g><defs><clipPath id="a"><path fill="#fff" d="M0 0h142v141H0z"></path></clipPath></defs></svg>