<svg width="40" height="40" viewBox="0 0 40 40" fill="none" xmlns="http://www.w3.org/2000/svg">
<path d="M20 27.1429C19.4407 27.1431 18.8936 26.9791 18.4266 26.6713C17.9596 26.3636 17.5932 25.9255 17.3729 25.4114C16.9119 25.3026 16.4582 25.1652 16.0143 25L15.99 24.9914C14.6866 24.5022 13.4835 23.7789 12.44 22.8571C11.042 21.6239 9.96689 20.0673 9.30845 18.3233C8.65 16.5792 8.42821 14.7005 8.6624 12.851C8.8966 11.0015 9.57967 9.23744 10.6521 7.71252C11.7245 6.1876 13.1536 4.94817 14.8149 4.1023C16.4762 3.25643 18.3192 2.8298 20.1832 2.85961C22.0472 2.88942 23.8756 3.37476 25.509 4.27332C27.1424 5.17188 28.5312 6.45637 29.5542 8.0148C30.5773 9.57323 31.2036 11.3583 31.3786 13.2143C31.4343 13.8043 30.95 14.2857 30.3572 14.2857C29.7657 14.2857 29.2929 13.8043 29.2243 13.2157C29.0354 11.5918 28.4212 10.0466 27.4437 8.73623C26.4662 7.42584 25.1601 6.39675 23.6574 5.75297C22.1546 5.1092 20.5086 4.87357 18.8856 5.06989C17.2626 5.26622 15.7202 5.88755 14.4144 6.87107C13.1085 7.8546 12.0854 9.16545 11.4486 10.6711C10.8117 12.1768 10.5837 13.8239 10.7875 15.446C10.9913 17.068 11.6197 18.6075 12.6092 19.9089C13.5987 21.2102 14.9143 22.2272 16.4229 22.8571L16.48 22.8814C16.7657 22.9986 17.0591 23.1019 17.36 23.1914C17.6352 22.5209 18.155 21.98 18.814 21.6783C19.4731 21.3767 20.2221 21.3367 20.9095 21.5666C21.5969 21.7966 22.1712 22.2791 22.5161 22.9166C22.861 23.5541 22.9508 24.2988 22.7672 25C22.6088 25.6134 22.251 26.1568 21.7501 26.5447C21.2492 26.9326 20.6336 27.143 20 27.1429ZM10 25H11.67C10.8713 24.3775 10.144 23.6684 9.50144 22.8857C8.45817 23.0079 7.49611 23.509 6.79795 24.2938C6.0998 25.0786 5.71417 26.0925 5.71429 27.1429V28.1643C5.71429 33.4757 11.7286 37.1429 20 37.1429C28.2714 37.1429 34.2857 33.2743 34.2857 28.1643V27.1429C34.2857 26.0062 33.8342 24.9161 33.0305 24.1124C32.2267 23.3087 31.1367 22.8571 30 22.8571H24.7929C24.9999 23.5516 25.0535 24.2828 24.95 25H30L30.2072 25.01C30.7371 25.0615 31.229 25.3084 31.5868 25.7027C31.9446 26.097 32.1429 26.6104 32.1429 27.1429V28.1643L32.1357 28.3943C31.9357 31.9943 27.0372 35 20 35C12.6986 35 7.85715 31.9843 7.85715 28.1643V27.1429L7.86715 26.9357C7.91862 26.4057 8.16556 25.9139 8.55985 25.5561C8.95415 25.1982 9.46754 25 10 25ZM27.1429 14.2857C27.1431 15.5797 26.7918 16.8494 26.1266 17.9593C25.4613 19.0691 24.507 19.9774 23.3657 20.5871C22.4449 19.7495 21.2448 19.2854 20 19.2857C20.6566 19.2857 21.3068 19.1564 21.9134 18.9051C22.5201 18.6538 23.0713 18.2855 23.5355 17.8212C23.9998 17.357 24.3681 16.8058 24.6194 16.1991C24.8707 15.5925 25 14.9423 25 14.2857C25 13.6291 24.8707 12.9789 24.6194 12.3723C24.3681 11.7657 23.9998 11.2145 23.5355 10.7502C23.0713 10.2859 22.5201 9.91759 21.9134 9.66632C21.3068 9.41504 20.6566 9.28571 20 9.28571C18.6739 9.28571 17.4022 9.8125 16.4645 10.7502C15.5268 11.6879 15 12.9596 15 14.2857C15 15.6118 15.5268 16.8836 16.4645 17.8212C17.4022 18.7589 18.6739 19.2857 20 19.2857C18.7029 19.2857 17.5229 19.78 16.6357 20.5886C15.495 19.9793 14.5411 19.0718 13.8757 17.9629C13.3092 17.0191 12.9685 15.9572 12.8802 14.8601C12.7919 13.7629 12.9583 12.6602 13.3665 11.6379C13.7746 10.6157 14.4135 9.70165 15.2333 8.96711C16.0531 8.23256 17.0315 7.69741 18.0922 7.40342C19.1529 7.10943 20.2672 7.06455 21.3482 7.2723C22.4291 7.48005 23.4474 7.9348 24.3235 8.60106C25.1997 9.26731 25.91 10.127 26.3991 11.1131C26.8882 12.0992 27.1427 13.185 27.1429 14.2857Z" fill="#333333"/>
</svg>
