<svg width="65" height="57" viewBox="0 0 65 57" fill="none" xmlns="http://www.w3.org/2000/svg">
<path d="M60.5392 0H4.46078C3.27771 0 2.14309 0.488807 1.30653 1.35889C0.469974 2.22897 0 3.40905 0 4.63954V52.3605C0 53.5909 0.469974 54.771 1.30653 55.6411C2.14309 56.5112 3.27771 57 4.46078 57H8.72721C9.08897 56.9999 9.44329 56.893 9.74898 56.6918C10.0547 56.4906 10.2992 56.2033 10.4542 55.8633C11.7452 53.0276 13.7837 50.6314 16.3327 48.9534C18.8817 47.2755 21.8363 46.3847 24.8529 46.3847C27.8696 46.3847 30.8242 47.2755 33.3732 48.9534C35.9222 50.6314 37.9607 53.0276 39.2517 55.8633C39.4067 56.2033 39.6512 56.4906 39.9569 56.6918C40.2626 56.893 40.6169 56.9999 40.9787 57H60.5392C61.7223 57 62.8569 56.5112 63.6935 55.6411C64.53 54.771 65 53.5909 65 52.3605V4.63954C65 3.40905 64.53 2.22897 63.6935 1.35889C62.8569 0.488807 61.7223 0 60.5392 0ZM16.5686 33.8023C16.5686 32.0982 17.0545 30.4323 17.9648 29.0154C18.8751 27.5984 20.1689 26.4941 21.6827 25.8419C23.1964 25.1898 24.8621 25.0191 26.4691 25.3516C28.0761 25.6841 29.5523 26.5047 30.7108 27.7097C31.8694 28.9147 32.6584 30.45 32.9781 32.1214C33.2977 33.7928 33.1337 35.5252 32.5067 37.0996C31.8796 38.6741 30.8178 40.0197 29.4555 40.9665C28.0931 41.9133 26.4914 42.4186 24.8529 42.4186C22.6558 42.4186 20.5487 41.5108 18.995 39.895C17.4414 38.2791 16.5686 36.0875 16.5686 33.8023ZM61.1765 52.3605C61.1765 52.5362 61.1093 52.7048 60.9898 52.8291C60.8703 52.9534 60.7082 53.0233 60.5392 53.0233H42.1449C39.9157 48.8617 36.3722 45.6294 32.1145 43.8734C34.1482 42.2881 35.6507 40.0773 36.4092 37.5543C37.1676 35.0314 37.1434 32.3241 36.3401 29.8162C35.5368 27.3083 33.995 25.1269 31.9333 23.5811C29.8716 22.0353 27.3945 21.2035 24.8529 21.2035C22.3114 21.2035 19.8343 22.0353 17.7726 23.5811C15.7109 25.1269 14.1691 27.3083 13.3658 29.8162C12.5625 32.3241 12.5383 35.0314 13.2967 37.5543C14.0551 40.0773 15.5577 42.2881 17.5914 43.8734C13.3337 45.6294 9.79021 48.8617 7.56103 53.0233H4.46078C4.29177 53.0233 4.12968 52.9534 4.01018 52.8291C3.89067 52.7048 3.82353 52.5362 3.82353 52.3605V4.63954C3.82353 4.46375 3.89067 4.29517 4.01018 4.17087C4.12968 4.04657 4.29177 3.97674 4.46078 3.97674H60.5392C60.7082 3.97674 60.8703 4.04657 60.9898 4.17087C61.1093 4.29517 61.1765 4.46375 61.1765 4.63954V52.3605ZM54.8039 12.593V44.407C54.8039 44.9343 54.6025 45.4401 54.244 45.813C53.8855 46.1859 53.3992 46.3954 52.8922 46.3954H47.7941C47.2871 46.3954 46.8008 46.1859 46.4423 45.813C46.0838 45.4401 45.8824 44.9343 45.8824 44.407C45.8824 43.8796 46.0838 43.3739 46.4423 43.001C46.8008 42.6281 47.2871 42.4186 47.7941 42.4186H50.9804V14.5814H14.0196V17.8953C14.0196 18.4227 13.8182 18.9284 13.4597 19.3013C13.1011 19.6742 12.6149 19.8837 12.1078 19.8837C11.6008 19.8837 11.1145 19.6742 10.756 19.3013C10.3975 18.9284 10.1961 18.4227 10.1961 17.8953V12.593C10.1961 12.0657 10.3975 11.5599 10.756 11.187C11.1145 10.8141 11.6008 10.6047 12.1078 10.6047H52.8922C53.3992 10.6047 53.8855 10.8141 54.244 11.187C54.6025 11.5599 54.8039 12.0657 54.8039 12.593Z" fill="#241F20"/>
</svg>
