<svg width="40" height="40" viewBox="0 0 40 40" fill="none" xmlns="http://www.w3.org/2000/svg">
<path d="M21.4286 16.7857C21.4286 16.5016 21.5415 16.229 21.7424 16.0281C21.9433 15.8272 22.2158 15.7143 22.5 15.7143H30.3571C30.6413 15.7143 30.9138 15.8272 31.1148 16.0281C31.3157 16.229 31.4286 16.5016 31.4286 16.7857C31.4286 17.0699 31.3157 17.3424 31.1148 17.5433C30.9138 17.7443 30.6413 17.8571 30.3571 17.8571H22.5C22.2158 17.8571 21.9433 17.7443 21.7424 17.5433C21.5415 17.3424 21.4286 17.0699 21.4286 16.7857ZM22.5 21.4286C22.2158 21.4286 21.9433 21.5415 21.7424 21.7424C21.5415 21.9433 21.4286 22.2158 21.4286 22.5C21.4286 22.7842 21.5415 23.0567 21.7424 23.2576C21.9433 23.4585 22.2158 23.5714 22.5 23.5714H30.3571C30.6413 23.5714 30.9138 23.4585 31.1148 23.2576C31.3157 23.0567 31.4286 22.7842 31.4286 22.5C31.4286 22.2158 31.3157 21.9433 31.1148 21.7424C30.9138 21.5415 30.6413 21.4286 30.3571 21.4286H22.5ZM16.0714 16.7857C16.0714 17.4488 15.808 18.0846 15.3392 18.5535C14.8704 19.0223 14.2345 19.2857 13.5714 19.2857C12.9084 19.2857 12.2725 19.0223 11.8037 18.5535C11.3348 18.0846 11.0714 17.4488 11.0714 16.7857C11.0714 16.1227 11.3348 15.4868 11.8037 15.0179C12.2725 14.5491 12.9084 14.2857 13.5714 14.2857C14.2345 14.2857 14.8704 14.5491 15.3392 15.0179C15.808 15.4868 16.0714 16.1227 16.0714 16.7857ZM10 20.7143H17.1429C17.5217 20.7143 17.8851 20.8648 18.153 21.1327C18.4209 21.4006 18.5714 21.764 18.5714 22.1429V22.8571C18.5714 22.8571 17.8571 26.4286 13.5714 26.4286C9.28571 26.4286 8.57143 22.8571 8.57143 22.8571V22.1429C8.57143 21.764 8.72194 21.4006 8.98984 21.1327C9.25775 20.8648 9.62112 20.7143 10 20.7143ZM2.86285 9.64286C2.86285 8.60094 3.27676 7.60169 4.01351 6.86494C4.75026 6.12819 5.7495 5.71429 6.79143 5.71429H33.2143C34.2562 5.71429 35.2555 6.12819 35.9922 6.86494C36.729 7.60169 37.1429 8.60094 37.1429 9.64286V30.3571C37.1429 31.3991 36.729 32.3983 35.9922 33.1351C35.2555 33.8718 34.2562 34.2857 33.2143 34.2857H6.79285C5.75093 34.2857 4.75168 33.8718 4.01493 33.1351C3.27818 32.3983 2.86428 31.3991 2.86428 30.3571L2.86285 9.64286ZM6.79143 7.85714C5.80571 7.85714 5.00571 8.65714 5.00571 9.64286V30.3571C5.00571 31.3429 5.80571 32.1429 6.79143 32.1429H33.2143C34.2 32.1429 35 31.3429 35 30.3571V9.64286C35 8.65714 34.2 7.85714 33.2143 7.85714H6.79143Z" fill="#333333"/>
</svg>
