<svg width="40" height="40" viewBox="0 0 40 40" fill="none" xmlns="http://www.w3.org/2000/svg">
<path d="M5.3125 10C5.3125 9.75136 5.41127 9.5129 5.58709 9.33709C5.7629 9.16127 6.00136 9.0625 6.25 9.0625H33.75C33.9986 9.0625 34.2371 9.16127 34.4129 9.33709C34.5887 9.5129 34.6875 9.75136 34.6875 10C34.6875 10.2486 34.5887 10.4871 34.4129 10.6629C34.2371 10.8387 33.9986 10.9375 33.75 10.9375H6.25C6.00136 10.9375 5.7629 10.8387 5.58709 10.6629C5.41127 10.4871 5.3125 10.2486 5.3125 10ZM6.25 20.9375H15C15.2486 20.9375 15.4871 20.8387 15.6629 20.6629C15.8387 20.4871 15.9375 20.2486 15.9375 20C15.9375 19.7514 15.8387 19.5129 15.6629 19.3371C15.4871 19.1613 15.2486 19.0625 15 19.0625H6.25C6.00136 19.0625 5.7629 19.1613 5.58709 19.3371C5.41127 19.5129 5.3125 19.7514 5.3125 20C5.3125 20.2486 5.41127 20.4871 5.58709 20.6629C5.7629 20.8387 6.00136 20.9375 6.25 20.9375ZM17.5 29.0625H6.25C6.00136 29.0625 5.7629 29.1613 5.58709 29.3371C5.41127 29.5129 5.3125 29.7514 5.3125 30C5.3125 30.2486 5.41127 30.4871 5.58709 30.6629C5.7629 30.8387 6.00136 30.9375 6.25 30.9375H17.5C17.7486 30.9375 17.9871 30.8387 18.1629 30.6629C18.3387 30.4871 18.4375 30.2486 18.4375 30C18.4375 29.7514 18.3387 29.5129 18.1629 29.3371C17.9871 29.1613 17.7486 29.0625 17.5 29.0625ZM36.8469 22.225L33.1766 25.2547L34.2953 29.775C34.3396 29.9542 34.3301 30.1424 34.2678 30.3162C34.2056 30.49 34.0934 30.6415 33.9454 30.7518C33.7974 30.8621 33.6202 30.9262 33.4359 30.9362C33.2516 30.9462 33.0684 30.9015 32.9094 30.8078L28.75 28.3594L24.5906 30.8078C24.4316 30.9015 24.2484 30.9462 24.0641 30.9362C23.8798 30.9262 23.7026 30.8621 23.5546 30.7518C23.4066 30.6415 23.2944 30.49 23.2322 30.3162C23.1699 30.1424 23.1604 29.9542 23.2047 29.775L24.3234 25.2547L20.6531 22.225C20.509 22.106 20.4036 21.9467 20.3507 21.7674C20.2978 21.5881 20.2997 21.3971 20.3561 21.2189C20.4125 21.0407 20.521 20.8834 20.6674 20.7673C20.8139 20.6512 20.9917 20.5815 21.1781 20.5672L26.0219 20.1922L27.8828 15.8781C27.9557 15.7109 28.0759 15.5685 28.2285 15.4685C28.3812 15.3686 28.5597 15.3153 28.7422 15.3153C28.9247 15.3153 29.1032 15.3686 29.2558 15.4685C29.4085 15.5685 29.5286 15.7109 29.6016 15.8781L31.4625 20.1922L36.3063 20.5672C36.4926 20.5815 36.6705 20.6512 36.8169 20.7673C36.9634 20.8834 37.0718 21.0407 37.1283 21.2189C37.1847 21.3971 37.1866 21.5881 37.1337 21.7674C37.0807 21.9467 36.9754 22.106 36.8313 22.225H36.8469ZM33.8625 22.2578L30.7641 22.0187C30.595 22.0042 30.433 21.9441 30.2954 21.8448C30.1578 21.7454 30.0498 21.6106 29.9828 21.4547L28.75 18.6156L27.525 21.4547C27.458 21.6106 27.35 21.7454 27.2124 21.8448C27.0748 21.9441 26.9128 22.0042 26.7438 22.0187L23.6453 22.2578L25.9797 24.1844C26.1159 24.297 26.2174 24.4457 26.2727 24.6135C26.328 24.7813 26.3348 24.9613 26.2922 25.1328L25.5687 28.0609L28.2812 26.4641C28.4252 26.3794 28.5892 26.3348 28.7562 26.3348C28.9233 26.3348 29.0873 26.3794 29.2313 26.4641L31.9453 28.0609L31.2219 25.1328C31.1793 24.9613 31.186 24.7813 31.2413 24.6135C31.2966 24.4457 31.3982 24.297 31.5344 24.1844L33.8625 22.2578Z" fill="#333333"/>
</svg>
