<svg width="40" height="40" viewBox="0 0 40 40" fill="none" xmlns="http://www.w3.org/2000/svg">
<path d="M10.2217 35C8.25832 35 6.66666 33.3667 6.66666 31.35V16.68C6.66666 15.5717 7.15832 14.5217 7.99999 13.83L17.7783 5.8C18.4031 5.28264 19.1888 4.99954 20 4.99954C20.8112 4.99954 21.5969 5.28264 22.2217 5.8L31.9983 13.83C32.8417 14.5217 33.3333 15.5717 33.3333 16.68V31.35C33.3333 33.3667 31.7417 35 29.7783 35H10.2217Z" stroke="#333333" stroke-width="1.5" stroke-linecap="round" stroke-linejoin="round"/>
<path d="M15.8333 35V25.8333C15.8333 24.9493 16.1845 24.1014 16.8096 23.4763C17.4347 22.8512 18.2826 22.5 19.1666 22.5H20.8333C21.7174 22.5 22.5652 22.8512 23.1903 23.4763C23.8155 24.1014 24.1666 24.9493 24.1666 25.8333V35" stroke="#333333" stroke-width="1.5" stroke-linecap="round" stroke-linejoin="round"/>
</svg>
