<svg width="113" height="39" viewBox="0 0 113 39" fill="none" xmlns="http://www.w3.org/2000/svg">
<path fill-rule="evenodd" clip-rule="evenodd" d="M57.4885 5.26085L57.4829 0L54.9257 0.00277503L54.9394 11.4325L57.4968 11.4294L57.4919 7.80802C57.4906 6.98229 57.813 6.12758 58.8249 6.12635C59.8504 6.12512 59.9779 6.97952 59.9792 7.80586L59.9832 11.4267L62.5394 11.4236L62.5345 7.101C62.5326 5.30957 61.6467 4.12678 59.8197 4.12894C58.8224 4.13018 58.1059 4.48939 57.517 5.26085H57.4885ZM48.6842 7.91472C48.6857 8.80983 49.2901 9.49742 50.3309 9.49619C51.37 9.49433 51.9729 8.80613 51.9717 7.91102C51.9708 7.04336 51.3666 6.31353 50.3268 6.31476C49.287 6.316 48.6832 7.04706 48.6842 7.91472ZM51.8917 11.4356L54.4497 11.4322L54.441 4.36854L51.8836 4.37131L51.8845 5.06014C51.3502 4.44069 50.4789 4.13944 49.6495 4.14006C47.5143 4.14284 46.0408 5.88032 46.0429 7.90362C46.0454 9.92817 47.551 11.6752 49.687 11.673C50.5298 11.6724 51.4144 11.3536 51.8631 10.6512H51.8907L51.8917 11.4356ZM42.3126 8.2107L44.1198 4.38022L46.9444 4.37714L43.1873 11.4452L41.5288 11.4476L39.7406 7.58076L37.9604 11.4516L36.3022 11.4535L32.5287 4.39379L35.3664 4.3904L37.1695 8.21717L38.9779 4.38639L40.4952 4.38423L42.3126 8.2107ZM67.1107 9.47644C66.0703 9.47767 65.4655 8.79039 65.4643 7.89559C65.463 7.02763 66.0678 6.29687 67.1067 6.29563C68.1458 6.29409 68.7515 7.02423 68.7521 7.89189C68.7534 8.78638 68.1496 9.47582 67.1107 9.47644ZM71.4498 7.8885C71.4526 10.2837 69.4305 11.6502 67.1132 11.6527C64.8092 11.6558 62.77 10.3086 62.7672 7.89837C62.7641 5.48871 64.7853 4.12247 67.1036 4.12031C69.4218 4.11785 71.4471 5.47854 71.4498 7.8885ZM76.1303 9.46661C75.0921 9.46754 74.4867 8.78025 74.4857 7.88515C74.4851 7.01749 75.088 6.28673 76.1272 6.28519C77.1673 6.28396 77.7721 7.01379 77.7733 7.88145C77.7746 8.77625 77.1701 9.46507 76.1303 9.46661ZM80.4713 7.87837C80.4741 10.2738 78.4519 11.6401 76.1328 11.6429C73.8304 11.6453 71.7908 10.2985 71.7877 7.88823C71.785 5.47858 73.8068 4.11265 76.1241 4.10987C78.4429 4.1074 80.4679 5.46871 80.4713 7.87837ZM7.90287 17.3856C11.8538 17.3856 18.0861 17.9319 18.0861 17.9319L18.0538 22.8194H7.64564C6.97075 22.8194 6.84229 22.8499 6.84229 23.4872V23.7302C6.84229 24.1856 7.19571 24.2769 7.8706 24.3981C7.8706 24.3981 14.2633 25.4908 14.649 25.5516C18.8249 26.2805 19.5318 27.8283 19.5318 30.9249V33.3534C19.5318 37.1481 17.6684 39 11.7573 39C7.80637 39 0.256923 38.4536 0.256923 38.4536L0.288884 33.5356H10.8901C12.2718 33.5356 12.8176 33.2625 12.8176 32.3516V31.7445C12.8176 31.4713 12.7857 31.1072 12.2395 31.0159C11.8538 30.9249 6.97075 30.1054 6.71383 30.0749L6.4385 30.0291C2.06555 29.3031 0 28.9601 0 24.9747V22.9711C0 19.2069 1.99178 17.3856 7.90287 17.3856ZM27.3108 17.5679H19.6974L28.5318 32.7161V38.8178H35.2133V32.6252L43.9835 17.5679H36.3701L31.8405 25.3697L27.3108 17.5679ZM51.8861 17.3856C55.8377 17.3856 62.0693 17.9319 62.0693 17.9319L62.0374 22.8194H51.6292C50.9546 22.8194 50.8258 22.8499 50.8258 23.4872V23.7302C50.8258 24.1856 51.1792 24.2769 51.8541 24.3981C51.8541 24.3981 58.2468 25.4908 58.6325 25.5516C62.8084 26.2805 63.515 27.8283 63.515 30.9249V33.3534C63.515 37.1481 61.6523 39 55.7409 39C51.7899 39 44.2408 38.4536 44.2408 38.4536L44.2727 33.5356H54.8736C56.2553 33.5356 56.8011 33.2625 56.8011 32.3516V31.7445C56.8011 31.4713 56.7692 31.1072 56.2231 31.0159C55.8377 30.9249 50.9546 30.1054 50.6974 30.0749L50.422 30.0291C46.0491 29.3031 43.9835 28.9601 43.9835 24.9747V22.9711C43.9835 19.2069 45.9753 17.3856 51.8861 17.3856ZM84.592 17.5679H64.0323V22.7285H71.2035V38.8179H77.8856V22.7285H84.592V17.5679ZM99.604 29.1641H99.7967L104.326 17.8713C104.326 17.8713 104.39 17.5679 104.776 17.5679H113V38.8179H106.318V28.5268H105.965L102.752 38.393C102.752 38.393 102.656 38.8179 102.206 38.8179H97.1948C96.7449 38.8179 96.6804 38.393 96.6804 38.393L93.4363 28.5268H93.0825V38.8179H86.4007V17.5679H94.6566C95.0101 17.5679 95.0746 17.8713 95.0746 17.8713L99.604 29.1641Z" fill="#0E1A19"/>
</svg>
